<svg width="24" height="17" viewBox="0 0 24 17" fill="currentColor" xmlns="http://www.w3.org/2000/svg">
    <path
        d="M11.4932 0.127499C11.376 0.207777 10.349 1.36944 8.92802 3.02222C7.61963 4.54278 6.52696 5.80361 6.49882 5.8225C6.46131 5.85083 5.49526 5.40222 3.82577 4.58528C1.26995 3.33389 1.20899 3.30556 0.922925 3.30556C0.557138 3.30556 0.285143 3.45667 0.111629 3.74944C-0.11816 4.14611 -0.174434 3.92417 1.79987 10.4644C2.79406 13.7558 3.64756 16.5183 3.70384 16.6033C3.75542 16.6931 3.89142 16.8158 3.99928 16.8819L4.20093 17H12.0044H19.8125L20.0235 16.8678C20.1548 16.7828 20.2721 16.6553 20.3377 16.5231C20.394 16.4097 21.2428 13.6567 22.2229 10.4031C24.1926 3.86278 24.1269 4.13194 23.869 3.72111C23.6955 3.44722 23.4188 3.30556 23.053 3.30556C22.8045 3.30556 22.6544 3.37167 20.1736 4.58528C18.4807 5.41167 17.5381 5.85083 17.5006 5.82722C17.4724 5.80361 16.3797 4.54278 15.0714 3.02222C13.6504 1.36944 12.6234 0.207777 12.5062 0.127499C12.342 0.0236092 12.2576 0 11.9997 0C11.7418 0 11.6573 0.0236092 11.4932 0.127499Z" />
</svg>