<svg width="24" height="24" viewBox="0 0 24 24" fill="none" xmlns="http://www.w3.org/2000/svg">
    <path
        d="M9.04465 6.56394C7.43153 9.07861 6.02493 11.2804 5.91972 11.4603C5.56515 12.0587 5.27681 12.8252 5.11316 13.5995C5.00406 14.0962 4.9651 15.3086 5.03524 15.8639C5.37033 18.5546 7.21723 20.815 9.77328 21.6676C10.6422 21.9609 10.9266 22 12.0098 22C13.093 22 13.3775 21.9609 14.2464 21.6676C16.3426 20.9675 17.9713 19.3328 18.6688 17.2288C18.961 16.3567 19 16.0712 19 14.984C19 13.932 18.961 13.6425 18.7078 12.8447C18.4233 11.9492 18.3298 11.7849 16.7829 9.39147C16.14 8.3903 14.8075 6.31756 13.8256 4.78451C12.8437 3.25538 12.0254 2 12.0098 2C11.9942 2 10.6617 4.05319 9.04465 6.56394ZM14.2542 11.077L16.4907 12.3715V14.984V17.5964L14.2542 18.8909C13.0268 19.6027 12.0059 20.1854 11.9903 20.1854C11.9748 20.1854 10.9578 19.6027 9.72652 18.8909L7.48998 17.5964V14.984V12.3715L9.72263 11.077C10.9461 10.3653 11.967 9.78256 11.9864 9.78256C12.0059 9.78256 13.0268 10.3653 14.2542 11.077Z"
        fill="url(#paint0_linear_297_1266)" />
    <path
        d="M10.5913 11.867C9.84708 12.305 9.23534 12.6765 9.23145 12.6961C9.23145 12.7352 11.92 14.3152 11.9901 14.3152C12.0525 14.3191 14.7488 12.7391 14.7527 12.7C14.7566 12.6648 12.1148 11.1122 12.0096 11.0887C11.9784 11.0809 11.3394 11.4329 10.5913 11.867Z"
        fill="url(#paint1_linear_297_1266)" />
    <path
        d="M8.61963 15.3242L8.62353 16.959L9.9561 17.7294C10.6886 18.1518 11.3198 18.5116 11.3588 18.5233C11.4212 18.5507 11.4251 18.4568 11.4251 16.9277V15.3047L10.112 14.5421C9.38722 14.1236 8.756 13.7638 8.70925 13.7364L8.61963 13.6895V15.3242Z"
        fill="url(#paint2_linear_297_1266)" />
    <path
        d="M13.9462 14.499L12.5552 15.3047V16.9277C12.5552 18.4568 12.5591 18.5507 12.6253 18.5233C12.6604 18.5116 13.2916 18.1518 14.0241 17.7294L15.3606 16.959V15.3242C15.3606 14.4286 15.3567 13.6934 15.3489 13.6934C15.345 13.6934 14.7138 14.0571 13.9462 14.499Z"
        fill="url(#paint3_linear_297_1266)" />
    <defs>
        <linearGradient id="paint0_linear_297_1266" x1="2.70312" y1="24.5758" x2="23.7231" y2="22.9379"
            gradientUnits="userSpaceOnUse">
            <stop stop-color="#ED1653" />
            <stop offset="1" stop-color="#F15822" />
        </linearGradient>
        <linearGradient id="paint1_linear_297_1266" x1="8.32562" y1="14.7307" x2="16.3737" y2="13.1978"
            gradientUnits="userSpaceOnUse">
            <stop stop-color="#ED1653" />
            <stop offset="1" stop-color="#F15822" />
        </linearGradient>
        <linearGradient id="paint2_linear_297_1266" x1="8.15936" y1="19.1498" x2="12.3795" y2="18.8774"
            gradientUnits="userSpaceOnUse">
            <stop stop-color="#ED1653" />
            <stop offset="1" stop-color="#F15822" />
        </linearGradient>
        <linearGradient id="paint3_linear_297_1266" x1="12.0949" y1="19.1493" x2="16.315" y2="18.8767"
            gradientUnits="userSpaceOnUse">
            <stop stop-color="#ED1653" />
            <stop offset="1" stop-color="#F15822" />
        </linearGradient>
    </defs>
</svg>