<svg width="24" height="24" viewBox="0 0 24 24" fill="none" xmlns="http://www.w3.org/2000/svg">
    <path
        d="M9.0262 2.08486C8.17603 2.34825 7.56743 3.05361 7.46058 3.91968C7.2701 5.40629 8.60344 6.63397 10.1319 6.3795C11.4095 6.16522 12.2596 4.96432 11.9948 3.75897C11.8137 2.942 11.2376 2.32593 10.4385 2.08932C10.0483 1.97325 9.39786 1.97325 9.0262 2.08486Z"
        fill="url(#paint0_linear_297_925)" />
    <path
        d="M12.8548 2.10268C12.7154 2.24553 12.7201 2.49107 12.8595 2.61607C12.9663 2.70982 12.9988 2.71428 14.1835 2.71428H15.4007V3.5625V4.41071H16.1161H16.8362L16.9292 4.52678C17.0546 4.68303 17.0499 4.78125 16.9152 4.93303L16.8037 5.05803L16.1022 5.07143L15.4007 5.08482V5.77232V6.45982L16.6365 6.47321C17.8722 6.48661 17.8722 6.48661 17.9605 6.59375C18.0813 6.73661 18.072 6.89286 17.9326 7.02232L17.8211 7.13393H16.6086H15.4007V7.84821V8.5625H16.1161H16.8362L16.9292 8.67857C17.0592 8.83928 17.0499 8.94643 16.892 9.10268L16.7573 9.23214H16.079H15.4007V9.92411V10.6161H16.5621C17.7886 10.6161 17.9048 10.6339 17.9977 10.8259C18.072 10.9866 18.0627 11.0536 17.9326 11.1741L17.8211 11.2857H16.6086H15.4007V12V12.7143H16.0976C16.7805 12.7143 16.8037 12.7188 16.9106 12.8259C17.0407 12.9464 17.0499 13.0134 16.9756 13.1741C16.892 13.3527 16.7433 13.3839 16.0511 13.3839H15.4007V14.0759V14.7679H16.59H17.7793L17.9141 14.8973C18.072 15.0536 18.0813 15.1607 17.9512 15.3214L17.8583 15.4375H16.6272H15.4007V16.1518V16.8661H16.0976C16.7805 16.8661 16.8037 16.8705 16.9106 16.9777C17.0918 17.1473 17.0592 17.3616 16.8362 17.4688C16.7387 17.5179 16.5343 17.5357 16.0511 17.5357H15.4007V18.2277V18.9152L16.6132 18.9286L17.8258 18.942L17.9373 19.067C18.072 19.2187 18.0767 19.317 17.9512 19.4732L17.8583 19.5893H16.6272H15.4007V20.4375V21.2857H13.7607H12.1161L12.1998 21.0491C12.2787 20.8348 12.2834 20.5982 12.288 17.8393V14.8571L12.4413 14.8929C12.5203 14.9107 12.7247 14.9241 12.892 14.9241C13.3798 14.9196 13.7607 14.6786 14.0209 14.2143C14.1231 14.0312 14.1231 14.0089 14.137 11.6339C14.1463 9.59375 14.137 9.19196 14.0767 8.9375C13.8676 8.07143 13.101 7.37053 12.2091 7.22768C11.9907 7.19196 11.1684 7.17857 9.54704 7.1875C7.25203 7.20089 7.19628 7.20536 6.92683 7.30357C6.11382 7.59821 5.50523 8.29018 5.36585 9.08928C5.33333 9.29018 5.3194 10.1295 5.32869 11.6875C5.34262 13.9777 5.34262 13.9866 5.44948 14.192C5.58885 14.4687 5.84437 14.7143 6.10453 14.8259C6.33217 14.9241 6.79675 14.9554 7.07549 14.8884L7.22416 14.8482V17.8929C7.22416 20.4911 7.23345 20.9554 7.29384 21.0937C7.33101 21.1786 7.36353 21.2589 7.36353 21.2679C7.36353 21.2768 6.42509 21.2857 5.27758 21.2857H3.18699L3.09408 21.4018C2.96864 21.5536 2.96864 21.7321 3.09408 21.8839L3.18699 22H11.4983H19.8095L19.9024 21.8839L20 21.7634V12V2.23661L19.9024 2.11607L19.8095 2H16.381H12.9524L12.8548 2.10268Z"
        fill="url(#paint1_linear_297_925)" />
    <defs>
        <linearGradient id="paint0_linear_297_925" x1="6.68756" y1="6.98122" x2="13.5449" y2="6.18515"
            gradientUnits="userSpaceOnUse">
            <stop stop-color="#ED1653" />
            <stop offset="1" stop-color="#F15822" />
        </linearGradient>
        <linearGradient id="paint1_linear_297_925" x1="0.210937" y1="24.5758" x2="25.6623" y2="22.1677"
            gradientUnits="userSpaceOnUse">
            <stop stop-color="#ED1653" />
            <stop offset="1" stop-color="#F15822" />
        </linearGradient>
    </defs>
</svg>