<svg width="24" height="24" viewBox="0 0 24 24" fill="none" xmlns="http://www.w3.org/2000/svg">
    <path
        d="M4.05592 2.23199C3.57948 2.34924 3.0796 2.62281 2.75156 2.94719C2.4118 3.27939 2.21654 3.60377 2.04861 4.08838C1.93926 4.41276 1.92755 4.49092 1.91193 5.09279C1.8924 5.82753 1.93926 6.3395 2.08376 6.99608C2.71641 9.84124 4.96975 12.1666 7.79327 12.8818C8.50012 13.0616 8.93361 13.1085 9.79276 13.1124C11.4564 13.1163 12.5499 12.7724 13.3817 11.9868C13.7098 11.6742 13.9831 11.2482 14.112 10.8535C14.2526 10.4275 14.2838 9.79825 14.1862 9.35662C14.1159 9.03224 13.8542 8.44211 13.6824 8.21152C13.2177 7.59794 12.5616 7.17194 11.8743 7.03907C11.5111 6.96872 10.8316 7.01171 10.359 7.13286C10.1442 7.18758 9.88649 7.23447 9.78886 7.23447C9.17183 7.23447 8.54308 6.914 8.17208 6.40985C7.90261 6.04248 7.83622 5.81971 7.79327 5.14359C7.75031 4.41276 7.68782 4.147 7.46522 3.68193C7.31682 3.37709 7.227 3.25594 6.96535 2.99409C6.7076 2.73224 6.57873 2.64235 6.27802 2.48993C5.75471 2.2359 5.39933 2.15383 4.81745 2.15773C4.50112 2.15773 4.24728 2.18509 4.05592 2.23199Z"
        fill="#1D1B1C" />
    <path
        d="M18.482 11.9517C17.8024 12.0454 17.0722 12.4441 16.6855 12.9287C16.338 13.3664 16.1661 13.7846 16.0412 14.492C15.9357 15.0938 15.799 15.3791 15.4593 15.7191C15.1625 16.0162 14.8813 16.1647 14.4517 16.2507C14.1862 16.3054 14.1315 16.3054 13.7839 16.2389C13.2411 16.1412 12.5342 16.1217 12.1945 16.2038C11.7805 16.2976 11.3236 16.5399 10.9995 16.8408C10.566 17.2433 10.3043 17.6732 10.1208 18.2829C10.0309 18.576 10.0153 18.7011 10.0153 19.1349C10.0114 19.7446 10.0661 19.9947 10.3238 20.5145C10.4605 20.792 10.566 20.9405 10.7808 21.1593C11.429 21.8159 12.3351 22.109 13.8386 22.152C14.936 22.1833 15.6741 22.0856 16.584 21.7886C17.0956 21.6205 17.9235 21.2219 18.3765 20.9288C19.9972 19.8775 21.1727 18.2634 21.6608 16.4148C22.1217 14.6796 21.9225 13.5384 21.0165 12.7098C20.376 12.1236 19.3841 11.8266 18.482 11.9517Z"
        fill="#1D1B1C" />
</svg>