<svg width="24" height="24" viewBox="0 0 24 24" fill="none" xmlns="http://www.w3.org/2000/svg">
    <path
        d="M10.6913 2.05766C7.04545 2.52643 3.88416 5.03827 2.60245 8.48374C2.13354 9.74942 1.96942 10.7846 2.00458 12.2808C2.02412 13.2379 2.08274 13.6949 2.28594 14.4879C3.21986 18.16 6.24438 21.0507 9.93319 21.8047C11.2344 22.0664 12.8522 22.0664 14.1027 21.7969C16.4746 21.2851 18.5652 19.9413 20.0266 17.992C21.0778 16.5896 21.7265 14.984 21.9414 13.2457C22.0195 12.6128 22.0195 11.3823 21.9414 10.7456C21.7694 9.34706 21.2849 7.96028 20.562 6.78444C18.952 4.16322 16.2714 2.42877 13.2469 2.05375C12.6412 1.97953 11.2852 1.98344 10.6913 2.05766Z"
        fill="#1D1B1C" />
    <path
        d="M9.24881 18.6817C9.9076 19.0126 10.4703 19.0755 11.302 18.9168L11.5444 8.81773C11.5476 8.81991 11.5507 8.82202 11.5538 8.82406C11.5548 8.84558 11.5555 8.86311 11.5557 8.87587C11.5557 8.87928 11.5557 8.88218 11.5557 8.8846C11.5437 8.87738 11.5302 8.8686 11.5161 8.85898L11.5446 8.81789C11.2218 8.59419 10.6547 8.3759 10.1823 8.2956C9.63273 8.2011 8.85498 8.27855 8.34416 8.47599L8.36218 8.52262L8.34416 8.47599C6.95072 9.0146 6.115 10.2421 5.96817 11.9529C5.83806 13.4314 6.41833 15.5316 7.34045 16.9316C7.91213 17.8038 8.50017 18.3632 9.22642 18.7264C9.22643 18.7264 9.22643 18.7264 9.22644 18.7264L9.24881 18.6817ZM9.24881 18.6817C8.53237 18.3234 7.95044 17.771 7.38223 16.9042C6.46541 15.5123 5.88897 13.423 6.01798 11.9573L9.24881 18.6817ZM15.6598 8.47597L15.6596 8.4759C15.5632 8.43919 15.394 8.39143 15.2364 8.35304C15.1573 8.33376 15.0803 8.31665 15.0158 8.30431C14.9529 8.29227 14.8979 8.28394 14.865 8.28394C14.856 8.28394 14.8477 8.28351 14.8404 8.2828C14.8417 8.28051 14.8431 8.27813 14.8445 8.27568C14.8605 8.24881 14.8829 8.21462 14.9081 8.18029L14.9085 8.17966C15.1054 7.90232 15.2613 7.52659 15.3503 7.11412M15.6598 8.47597L11.8559 6.57484C12.277 5.73863 13.1393 5.19624 14.3543 4.98945C14.4697 4.96982 14.6643 4.95325 14.7898 4.95047L14.7902 4.95047C14.8843 4.94911 14.9482 4.95025 14.9992 4.95987C15.0532 4.97007 15.0912 4.98942 15.1347 5.01931C15.2474 5.09531 15.3162 5.22082 15.3573 5.4204C15.3982 5.61935 15.4132 5.90005 15.4118 6.29683L15.4118 6.29697C15.4091 6.74047 15.3981 6.8981 15.3503 7.11412M15.6598 8.47597C16.8631 8.9394 17.6752 9.94978 17.9499 11.3184M15.6598 8.47597L15.1645 18.5017C15.9532 17.9788 16.5787 17.2136 17.1113 16.1361C17.9136 14.5155 18.2299 12.7048 17.9499 11.3184M15.3503 7.11412C15.3503 7.11405 15.3503 7.11398 15.3503 7.1139L15.3015 7.10337L15.3503 7.11419C15.3503 7.11417 15.3503 7.11414 15.3503 7.11412ZM9.97682 9.24202L9.97699 9.24204C10.5453 9.3279 11.0109 9.56077 11.4653 9.99183L11.4654 9.99199C11.6095 10.1274 11.6969 10.2064 11.7706 10.2501C11.8498 10.2971 11.9131 10.3036 12.002 10.3036C12.0891 10.3036 12.1518 10.2979 12.2304 10.252C12.3035 10.2093 12.3903 10.1316 12.533 9.99755C12.807 9.74352 12.9951 9.61249 13.2865 9.47002C14.2532 9.00331 15.4055 9.18581 16.1754 9.92597L16.1754 9.92602C16.603 10.3359 16.8735 10.8647 17.0202 11.5844L17.0202 11.5846C17.0575 11.765 17.0755 12.0921 17.0734 12.4342C17.0714 12.7756 17.0494 13.1258 17.009 13.3513L17.009 13.3514C16.722 14.9604 16.0448 16.3883 15.1538 17.2678L15.1537 17.2679C14.7358 17.6815 14.3017 17.941 13.8489 18.0478L13.8488 18.0478C13.6967 18.084 13.5757 18.1003 13.4337 18.0957C13.2907 18.0911 13.1247 18.0652 12.8823 18.0147L12.8823 18.0147C12.508 17.9373 12.4057 17.9289 12.002 17.9289C11.5983 17.9289 11.496 17.9373 11.1217 18.0147L11.1217 18.0147C10.8793 18.0652 10.7133 18.0911 10.5703 18.0957L9.97682 9.24202ZM9.97682 9.24202C9.50868 9.16965 9.07316 9.22571 8.61993 9.41116L8.60184 9.36696L8.61993 9.41116C7.76279 9.76182 7.20626 10.4952 6.98379 11.5844L6.98377 11.5846C6.94647 11.765 6.92853 12.0921 6.93059 12.4342C6.93264 12.7756 6.95457 13.1258 6.995 13.3513L6.995 13.3513M9.97682 9.24202L6.995 13.3513M6.995 13.3513C7.21217 14.5664 7.64767 15.6576 8.20736 16.4869C8.76768 17.317 9.44879 17.8796 10.1552 18.0478L6.995 13.3513ZM17.9499 11.3184L17.9009 11.3283M17.9499 11.3184C17.9499 11.3184 17.9499 11.3185 17.9499 11.3185L17.9009 11.3283M17.9009 11.3283C17.6292 9.9747 16.8276 8.9793 15.6418 8.52262L15.1367 18.4602C15.9163 17.9433 16.5367 17.1858 17.0665 16.1139C17.8652 14.5005 18.1782 12.7011 17.9009 11.3283ZM11.5377 8.59805C11.474 7.90212 11.6036 7.07204 11.8558 6.57498L11.5377 8.59805ZM14.3666 7.06275L14.3667 7.06249C14.442 6.79457 14.4825 6.37669 14.4611 6.11757L14.5109 6.11344L14.4611 6.11784C14.4598 6.10286 14.4586 6.08914 14.4576 6.07656C14.454 6.0344 14.4516 6.00487 14.4471 5.98257C14.4443 5.96876 14.4415 5.96228 14.4398 5.95947C14.4396 5.95909 14.4394 5.95882 14.4393 5.95864C14.438 5.95813 14.433 5.95668 14.4207 5.95718C14.4082 5.9577 14.3915 5.96006 14.3684 5.96477C14.3335 5.97191 14.2893 5.98331 14.2313 5.99825C14.2122 6.00318 14.1916 6.00849 14.1694 6.01416C13.8735 6.0926 13.6852 6.16507 13.4533 6.29135C13.1094 6.47872 12.8705 6.71171 12.7166 7.0246C12.5621 7.33874 12.4912 7.73763 12.4912 8.2601V8.57854L12.5204 8.57239C12.5205 8.57235 12.5207 8.57231 12.5209 8.57227C12.5656 8.5617 12.6941 8.52175 12.8073 8.48601C13.6696 8.19685 14.1857 7.71991 14.3666 7.06275Z"
        fill="white" stroke="white" stroke-width="0.1" />
</svg>