<svg width="24" height="24" viewBox="0 0 24 24" fill="currentColor" xmlns="http://www.w3.org/2000/svg">
    <path
        d="M8.79457 3.07108C8.59143 3.17374 8.48204 3.36327 8.48204 3.61203C8.48204 3.98714 8.73597 4.22406 9.13836 4.22406H9.34151V5.66529C9.34151 7.33554 9.36104 7.50533 9.63842 8.08577C9.94314 8.72149 10.4823 9.20322 11.1581 9.44408L11.4706 9.55464H10.1932H8.91568L8.51329 9.34142C7.88041 9.00579 7.63429 8.94261 6.95844 8.94656C6.44666 8.94656 6.36072 8.95841 6.07944 9.05712C5.90754 9.11635 5.63798 9.23481 5.47781 9.32563C5.25122 9.44803 5.19653 9.46778 5.21606 9.4125C5.23169 9.36906 5.53641 8.53196 5.89582 7.54877L6.54042 5.76401H6.68888C6.77092 5.76401 6.935 5.72847 7.0522 5.68504C8.05231 5.30597 8.13825 3.88448 7.19284 3.35932C6.9389 3.22112 6.935 3.21717 6.38416 3.20533C5.90364 3.18953 5.79034 3.20138 5.55985 3.27245C5.26685 3.35932 4.96603 3.59229 4.81367 3.84105C4.77461 3.91212 4.12219 5.45997 3.3682 7.28026C1.78991 11.0946 1.86804 10.834 2.18448 11.2565C2.6025 11.8251 3.29007 12.3976 3.96202 12.7372C4.69647 13.1123 5.71611 13.3413 6.8764 13.3966L7.09126 13.4045L7.86479 15.9513L8.6344 18.4982L8.63831 19.6314V20.7647L8.73207 20.8752L8.82583 20.9858L11.9277 20.9976C14.2014 21.0055 15.0531 20.9937 15.1351 20.9621C15.3539 20.8673 15.3578 20.8515 15.3578 19.6235L15.3617 18.4982L16.1313 15.9513L16.9048 13.4045L17.4127 13.3769C18.3933 13.3176 19.3543 13.0847 20.0341 12.7411C20.7021 12.3976 21.3936 11.8251 21.8155 11.2565C22.132 10.83 22.2101 11.0946 20.6318 7.28026C19.8778 5.46391 19.241 3.93976 19.2215 3.90028C19.1512 3.76602 18.9011 3.50542 18.7527 3.41065C18.4753 3.23691 18.2097 3.18953 17.608 3.20533C17.0611 3.21717 17.0533 3.22112 16.8033 3.35932C15.8578 3.88448 15.9438 5.30597 16.9439 5.68504C17.0611 5.72847 17.2252 5.76401 17.3072 5.76401H17.4557L18.1042 7.54877C18.4597 8.53196 18.7644 9.36906 18.78 9.4125C18.7996 9.46778 18.7449 9.44803 18.5183 9.32563C18.3581 9.23481 18.0886 9.11635 17.9167 9.05712C17.6354 8.95841 17.5494 8.94656 17.0377 8.94656C16.3618 8.94261 16.1157 9.00579 15.4828 9.34142L15.0804 9.55464H13.8029H12.5254L12.838 9.44408C13.2599 9.30194 13.5607 9.1124 13.8693 8.80047C14.178 8.49248 14.385 8.14895 14.5257 7.71855C14.6233 7.41846 14.6311 7.35134 14.6468 6.44711C14.6663 5.32571 14.6233 5.02562 14.3811 4.5202C14.0998 3.93976 13.6701 3.51332 13.088 3.24086C12.6192 3.01974 12.4082 3 10.5838 3C9.08757 3 8.91959 3.0079 8.79457 3.07108ZM13.5998 15.5091C14.0139 15.7184 14.0139 16.3028 13.5998 16.512C13.4787 16.5752 13.3146 16.5831 11.998 16.5831C10.3651 16.5831 10.3494 16.5792 10.1736 16.3107C9.99392 16.0382 10.0994 15.6592 10.3963 15.5091C10.5174 15.4459 10.6815 15.438 11.998 15.438C13.3146 15.438 13.4787 15.4459 13.5998 15.5091ZM13.0138 17.8783C13.4279 18.0875 13.4279 18.6719 13.0138 18.8812C12.8966 18.9444 12.7559 18.9523 12.0059 18.9523C11.0878 18.9523 10.9628 18.9325 10.8143 18.7627C10.5604 18.4784 10.6424 18.052 10.9862 17.8783C11.0995 17.8151 11.2402 17.8072 11.998 17.8072C12.7559 17.8072 12.8966 17.8151 13.0138 17.8783Z"
        fill="url(#paint0_linear_297_778)" />
    <defs>
        <linearGradient id="paint0_linear_297_778" x1="-1.28125" y1="23.3182" x2="28.4744" y2="19.6381"
            gradientUnits="userSpaceOnUse">
            <stop />
            <stop offset="1" />
        </linearGradient>
    </defs>
</svg>