<svg width="24" height="24" viewBox="0 0 24 24" fill="none" xmlns="http://www.w3.org/2000/svg">
    <path
        d="M5.45856 2.05851C5.47034 2.08585 5.56846 2.24984 5.68228 2.42165C6.07085 3.01126 6.30635 3.59697 6.38485 4.17487C6.41232 4.35449 6.42802 5.30334 6.42802 6.59971C6.42802 7.78674 6.44372 8.72388 6.46335 8.72388C6.48297 8.72388 6.57325 8.68092 6.66745 8.63016C6.89509 8.50131 7.25619 8.4115 7.52701 8.4115C7.66046 8.4115 7.83708 8.37636 7.97838 8.32169L8.21388 8.23188L8.22565 6.1819C8.2335 4.74106 8.22565 4.05383 8.19033 3.86249C8.0922 3.28069 7.81746 2.58955 7.56626 2.30841C7.32684 2.03899 7.20124 2.00775 6.2671 2.00775C5.59986 2.00775 5.44286 2.01946 5.45856 2.05851Z"
        fill="#1D1B1C" />
    <path
        d="M12.2768 2.10541C12.1983 2.19132 12.1787 2.2577 12.1669 2.48808C12.1434 2.96445 12.0924 3.03474 11.6802 3.10112C11.5429 3.12064 11.3113 3.17531 11.1661 3.21436C10.7422 3.3354 10.6951 3.30026 10.4321 2.65598C10.228 2.16008 10.1417 2.07418 9.93757 2.16789C9.76487 2.24989 9.77272 2.40608 9.98074 3.13236C10.1848 3.83911 10.1888 3.76883 9.90224 4.17492C9.30173 5.02224 9.00343 6.22099 8.9524 8.00545C8.92886 8.82545 8.93278 8.8684 9.00343 8.89573C9.3135 9.02068 9.76487 9.15344 9.88654 9.15344C10.02 9.15344 10.0357 9.14173 10.0828 9.00897C10.2516 8.50135 10.6519 7.84145 11.1661 7.23232C11.4604 6.8848 11.4801 6.84966 11.5075 6.63099C11.6292 5.58843 12.1669 4.89729 12.8538 4.89729C12.9833 4.89729 13.0501 4.92072 13.1207 4.99491C13.3366 5.20577 13.1717 5.5611 12.8577 5.5611C12.6536 5.5611 12.4024 5.811 12.3357 6.07652L12.3082 6.18585L12.6144 6.03357C13.1246 5.77976 13.5838 5.66652 14.2825 5.61576L14.624 5.59233L14.6711 5.27996C14.7692 4.66691 14.624 4.19054 14.2275 3.80007C13.9999 3.5775 13.6113 3.33931 13.313 3.24169C13.2031 3.20655 13.0697 3.13236 13.0187 3.07769C12.9362 2.98788 12.9245 2.93712 12.9127 2.59351C12.9009 2.24989 12.8852 2.19522 12.8067 2.10541C12.6733 1.96485 12.4064 1.96485 12.2768 2.10541Z"
        fill="#1D1B1C" />
    <path
        d="M14.1806 6.30307C13.5447 6.34993 13.0345 6.51002 12.6066 6.80288C11.8138 7.34173 10.9071 8.54048 10.6834 9.34485C10.601 9.6299 10.6167 9.65333 10.9503 9.82123C11.3899 10.0438 11.8374 10.1727 12.3358 10.2273C12.5595 10.2508 13.8038 10.1883 13.9254 10.1453C14.0236 10.1141 14.263 9.77047 14.3375 9.56352C14.4317 9.3019 14.4592 8.74743 14.3964 8.34134C14.3493 8.03287 14.3532 8.00553 14.4239 7.90792C14.471 7.84934 14.6044 7.76735 14.7536 7.70877C14.9891 7.61897 15.0519 7.61506 15.8016 7.61116H16.6022L16.7318 7.47059C16.9005 7.28316 16.9359 7.09573 16.8338 6.87316C16.7396 6.66231 16.5905 6.5764 16.0724 6.43974C15.4365 6.27184 15.0244 6.2445 14.1806 6.30307Z"
        fill="#1D1B1C" />
    <path
        d="M15.1032 8.91133C15.1032 9.56732 14.9619 9.97341 14.5537 10.4888C14.3025 10.8051 14.3614 11.0082 14.7578 11.1878C14.9422 11.2698 15.0207 11.2815 15.476 11.2815C15.9431 11.2815 16.002 11.2737 16.1825 11.1839C16.4298 11.0589 16.4926 10.9379 16.4887 10.5786C16.4848 10.0984 16.2296 9.49704 15.845 9.06361C15.6801 8.87618 15.2288 8.52866 15.1463 8.52866C15.1189 8.52866 15.1032 8.65361 15.1032 8.91133Z"
        fill="#1D1B1C" />
    <path
        d="M7.12732 9.16908C6.78978 9.30575 6.55036 9.47365 6.26776 9.7665C5.84779 10.1999 5.58482 10.649 5.36502 11.2972C5.0785 12.1289 5 12.7458 5 14.1125C5.00392 15.4479 5.09027 16.4084 5.25512 16.9121C5.29045 17.0254 5.30615 17.0371 5.41997 17.0176C5.66332 16.9746 5.73397 16.8887 5.87134 16.4514C6.27168 15.2175 6.27168 15.2175 7.45309 14.2335C9.44697 12.5701 10.3262 11.5158 10.385 10.7154C10.4243 10.1687 10.3222 10.0828 9.11727 9.64936C8.7287 9.50879 8.24986 9.32137 8.05361 9.23546C7.62972 9.04804 7.45309 9.03632 7.12732 9.16908Z"
        fill="#1D1B1C" />
    <path
        d="M11.0839 10.6803C11.0761 10.7115 11.0486 10.8482 11.0251 10.9887C10.974 11.266 10.7189 11.8243 10.4952 12.1562L10.3539 12.3671L10.3971 12.6014C10.4206 12.7302 10.4756 12.9138 10.5187 13.0075C10.6365 13.2535 11.0211 13.5815 11.4058 13.765C11.7512 13.929 11.8375 14.0266 11.7904 14.2062C11.7355 14.4288 11.4725 14.5264 11.2017 14.4288C11.1153 14.3936 11.1036 14.4015 11.08 14.5147C11.0368 14.7021 10.9152 14.8154 10.7464 14.8154C10.5344 14.8154 10.4442 14.6982 10.3931 14.3546C10.346 14.0071 10.295 13.8899 10.0752 13.5658C9.9771 13.4253 9.87505 13.2535 9.84758 13.1832C9.81618 13.1129 9.78085 13.0621 9.76515 13.066C9.74945 13.0738 9.47863 13.3238 9.16856 13.6244L8.59552 14.1711L8.68972 14.5342C8.74074 14.7334 8.81532 15.1082 8.85457 15.3698L8.92521 15.8462L9.05866 15.8774C9.13324 15.897 9.33733 15.9243 9.51003 15.9438C9.77693 15.9751 9.8358 15.9946 9.91038 16.0844C10.0321 16.225 10.0242 16.3812 9.89468 16.5139C9.78478 16.6232 9.78478 16.6232 9.36481 16.5998L8.94484 16.5764L8.99586 16.7404C9.10184 17.0801 9.19604 17.2129 9.45508 17.412C9.67881 17.5838 9.70235 17.7712 9.52966 17.9469C9.37658 18.0953 9.24706 18.0797 8.97624 17.8728C8.53272 17.5369 8.32077 17.0996 8.26975 16.4163C8.19125 15.4089 8.08135 14.6592 8.00285 14.6592C7.96753 14.6592 7.25711 15.2449 7.08049 15.4206C6.89209 15.608 6.77434 15.8462 6.62519 16.3577C6.46427 16.9044 6.29942 17.2402 6.11495 17.4081L5.96973 17.5409L6.11102 17.8064C6.97059 19.4268 8.57982 20.5904 10.7071 21.1293C11.1742 21.2464 11.3273 21.266 12.022 21.3011C12.7049 21.3323 13.3683 21.3948 13.855 21.4768L13.9963 21.5002L14.0394 21.2738C14.0944 20.9926 14.2553 20.5202 14.377 20.282C14.428 20.1844 14.5732 19.9423 14.7067 19.7431C15.107 19.134 15.2876 18.7201 15.3818 18.1578C15.4799 17.5877 15.3661 17.1387 14.95 16.4553C14.8126 16.2289 14.6949 16.0375 14.687 16.0297C14.6792 16.018 14.5928 16.0922 14.4986 16.1937C14.2828 16.4163 13.9806 16.5725 13.7058 16.5998C13.5213 16.6193 13.4899 16.6115 13.3997 16.5217C13.2113 16.3304 13.3015 16.0219 13.5645 15.9633C13.7804 15.9165 13.8903 15.8579 14.0237 15.7095C14.2278 15.4831 14.3573 15.2019 14.3573 14.9794C14.3573 14.4405 14.6007 13.1168 14.848 12.3359C14.899 12.164 14.9461 12.004 14.9461 11.9805C14.9461 11.9532 14.8872 11.922 14.8205 11.9102C14.6399 11.8751 14.2435 11.6838 14.0905 11.5549C13.9413 11.43 13.7294 11.0863 13.7294 10.9653C13.7294 10.8833 13.7176 10.8833 12.8973 10.8872C12.1005 10.8911 12.0416 10.8872 11.6334 10.7818C11.3979 10.7193 11.1821 10.6607 11.1507 10.649C11.1232 10.6373 11.0918 10.6529 11.0839 10.6803Z"
        fill="#1D1B1C" />
    <path
        d="M16.5431 11.7462C16.3233 11.8711 15.9936 11.9649 15.7699 11.9649C15.6679 11.9649 15.6561 11.9844 15.5187 12.4568C15.3539 13.0113 15.3539 13.023 15.5619 13.5228C15.8602 14.2452 16.3115 14.6982 16.9278 14.8934C17.2849 15.0066 17.5754 15.2097 17.8501 15.5455C18.0581 15.7954 18.2426 16.1468 18.2426 16.2952C18.2426 16.5412 17.9483 16.6974 17.7481 16.5568C17.7049 16.5256 17.5989 16.385 17.5165 16.2444C17.3203 15.9125 17.0573 15.6548 16.8336 15.5728C16.0603 15.2956 15.6365 14.9793 15.24 14.378C15.1105 14.1827 15.1105 14.1827 15.0909 14.296C14.9614 14.9715 15.0791 15.4362 15.5854 16.2327C15.8013 16.5724 16.0133 17.0761 16.0603 17.3768C16.0839 17.5174 16.1192 17.5603 16.339 17.7204C16.7001 17.9859 17.1554 18.4818 17.4851 18.9816C17.7638 19.3994 17.8972 19.54 18.0228 19.54C18.1131 19.54 18.2426 19.7353 18.2426 19.8719C18.2426 19.9969 18.1366 20.1296 17.9914 20.1804C17.9012 20.2116 17.5636 20.1062 17.4969 20.0242C17.4223 19.9383 17.3948 19.9539 17.2692 20.1804C17.0534 20.5592 16.8375 20.649 16.6295 20.442C16.4921 20.3053 16.4803 20.1413 16.5941 19.9969C16.704 19.8563 16.8179 19.5947 16.8493 19.3955C16.8728 19.2472 16.861 19.212 16.7472 19.0636C16.5941 18.8606 16.1153 18.3686 16.076 18.3686C16.0603 18.3686 16.0054 18.5131 15.9505 18.6888C15.8249 19.0988 15.558 19.6415 15.2597 20.1023C14.9143 20.6333 14.7847 20.9535 14.6945 21.5002L14.667 21.6408L15.1694 21.7618C15.9426 21.9453 16.4254 22.0117 16.9238 21.9961C17.3399 21.9805 17.3791 21.9727 17.6578 21.836C18.5566 21.3909 19.0041 20.278 19.0001 18.5053C19.0001 16.9317 18.4938 15.0223 17.5558 13.0426C17.3752 12.656 16.8022 11.6056 16.7786 11.6173C16.7747 11.6173 16.6687 11.6759 16.5431 11.7462Z"
        fill="#1D1B1C" />
    <path
        d="M6.42822 20.3912V21.3284L6.53812 21.5353C6.62055 21.6993 6.69512 21.7774 6.85997 21.875C7.06014 21.9961 7.09546 22.0039 7.37414 21.9922C7.61748 21.9843 7.69991 21.9609 7.83336 21.8711C8.09633 21.6993 8.21015 21.4924 8.22585 21.1605L8.24155 20.8793L7.9982 20.7309C7.61356 20.5006 7.18181 20.1647 6.79324 19.7977L6.42822 19.4541V20.3912Z"
        fill="#1D1B1C" />
    <path
        d="M8.96025 21.344C9.08585 21.7618 9.41162 22 9.85514 22C10.1024 22 10.4478 21.875 10.4243 21.797C10.4164 21.7735 10.2241 21.6993 10.0004 21.6291C9.77272 21.5588 9.45087 21.4494 9.2821 21.3791C9.11333 21.3128 8.9681 21.2581 8.95633 21.2581C8.94455 21.2581 8.94848 21.2971 8.96025 21.344Z"
        fill="#1D1B1C" />
</svg>