<svg width="24" height="24" viewBox="0 0 24 24" fill="currentColor" xmlns="http://www.w3.org/2000/svg">
    <path
        d="M6.94244 3.02336C6.87993 3.03115 6.6416 3.08181 6.41889 3.13637C4.18405 3.68584 2.49229 5.59145 2.07814 8.03484C2.01954 8.37387 2 8.67784 2 9.16106C2 9.97942 2.06251 10.4393 2.2774 11.2654L2.31647 11.4135H3.84804H5.37961L5.96567 10.2561C6.61815 8.97011 6.63769 8.93893 6.9737 8.93893C7.34878 8.93893 7.31752 8.88827 8.46229 11.1719L9.49376 13.2256L10.4979 11.2186C11.0488 10.1158 11.5411 9.16885 11.5879 9.12209C11.8302 8.8571 12.174 8.8571 12.4162 9.12209C12.4631 9.16885 12.7483 9.70663 13.0531 10.3107L13.604 11.4135H15.706C17.6752 11.4135 17.8119 11.4174 17.9408 11.4875C18.3394 11.698 18.355 12.2319 17.9721 12.4657C17.8471 12.5397 17.7689 12.5436 15.4872 12.5436C12.8929 12.5436 12.9984 12.5514 12.8109 12.302C12.7601 12.2319 12.5882 11.9084 12.4319 11.5889C12.2756 11.2654 12.1154 10.9459 12.0724 10.8757L11.9943 10.7471L10.9863 12.7657C10.3142 14.1063 9.93525 14.8233 9.85711 14.8974C9.76334 14.987 9.69302 15.0143 9.53283 15.0299C9.14212 15.061 9.1851 15.1234 8.01298 12.7969L6.9737 10.7354L6.54783 11.5694C6.17275 12.302 6.10633 12.4111 5.98521 12.4735C5.86018 12.5358 5.71953 12.5436 4.29736 12.5436H2.74625L2.78532 12.6527C2.85955 12.871 3.37919 13.7751 3.69957 14.2583C5.18817 16.4756 7.64571 18.5917 10.9394 20.4895C11.6114 20.8753 11.8693 21 12.0099 21C12.1427 21 12.678 20.7233 13.5649 20.1933C16.4913 18.4397 18.648 16.5731 20.1171 14.5311C21.1056 13.1554 21.7346 11.6707 21.9495 10.2054C22.0354 9.60531 22.0081 8.37387 21.8948 7.8283C21.4611 5.76681 20.1405 4.11451 18.3394 3.37798C17.6908 3.11299 17.2766 3.03115 16.5148 3.00777C15.495 2.97659 14.8543 3.12078 13.9947 3.56503C13.3461 3.90407 12.721 4.41067 12.1701 5.04977L11.9943 5.25242L11.8106 5.03029C10.9355 3.98591 9.7399 3.26497 8.54825 3.05453C8.22787 2.99998 7.26673 2.98049 6.94244 3.02336Z" />
</svg>