<svg width="24" height="24" viewBox="0 0 24 24" fill="currentColor" xmlns="http://www.w3.org/2000/svg">
    <path
        d="M4.56428 2.04907C4.15375 2.14401 3.90353 2.29038 3.5321 2.65829C2.80097 3.38223 2.29661 4.64417 2.0542 6.36502C1.9721 6.93863 1.98774 8.72276 2.07375 9.2133C2.60157 12.0972 4.56037 16.3617 6.68729 19.2535C7.58263 20.468 8.54444 21.4293 9.21301 21.7735C9.61181 21.9752 9.84248 22.0227 10.2882 21.991C11.5237 21.908 12.5793 21.6192 13.6741 21.0614C15.6016 20.0803 17.1147 18.4188 17.6503 16.6861L17.7598 16.3261L18.0335 16.2826C20.0118 15.9701 21.6031 14.3877 21.9433 12.4018C22.0254 11.9271 22.0175 11.1042 21.9276 10.6295C21.5679 8.77419 20.133 7.2828 18.3267 6.87929C17.8614 6.77643 17.0091 6.75665 16.5282 6.83577C14.4873 7.1839 12.9468 8.75046 12.6184 10.8194L12.5715 11.124L12.4073 11.1715C11.3634 11.488 10.2765 12.5403 9.89722 13.6044C9.86203 13.7112 9.82293 13.8101 9.81511 13.818C9.79557 13.8457 9.43587 13.4897 8.8103 12.833C7.35195 11.2981 6.28458 9.86603 5.84278 8.84935C5.67466 8.46167 5.56909 8.1175 5.60819 8.0819C5.62774 8.07003 6.16729 7.8485 6.8124 7.59136C8.21601 7.03357 8.23556 7.02566 8.50534 6.76852C8.75165 6.52721 8.88459 6.31359 8.98624 5.98524C9.08399 5.66481 9.0918 4.47011 8.99797 4.11012C8.86504 3.57607 8.54835 3.21608 7.98534 2.94312C7.17601 2.55148 5.89751 2.12028 5.2915 2.0372C4.92398 1.98577 4.84187 1.98577 4.56428 2.04907Z" />
</svg>