<svg width="24" height="24" viewBox="0 0 24 24" fill="none" xmlns="http://www.w3.org/2000/svg">
    <path
        d="M21.0731 3.61831C21.0067 3.66909 20.4559 4.28623 19.8505 4.99711C19.2412 5.70409 18.71 6.32514 18.667 6.37201L18.5889 6.46185L18.7998 6.8876C18.999 7.28991 19.0224 7.31726 19.1787 7.38366C19.3466 7.45006 19.3466 7.45006 19.4365 7.35632C19.5927 7.19617 21.8621 4.53231 21.9324 4.43075C22.0261 4.29795 22.0222 3.9386 21.9246 3.79017C21.8035 3.6105 21.655 3.53238 21.4129 3.53238C21.2488 3.53238 21.1668 3.55581 21.0731 3.61831Z"
        fill="#1D1B1C" />
    <path
        d="M13.0111 3.69644C12.4565 3.74722 11.9135 3.99329 11.4683 4.39951C11.2417 4.61044 10.8863 5.10649 10.8394 5.27836C10.816 5.38382 10.8277 5.38772 10.4293 5.23539C9.90587 5.03619 9.26529 5.02837 8.69112 5.20414C8.05054 5.40725 7.42168 5.93846 7.12873 6.53998C6.94515 6.90714 6.8436 7.27821 6.8436 7.57506V7.77427L6.56237 7.84067C6.40613 7.87582 6.10927 7.98909 5.90617 8.08674C5.58588 8.24689 5.48432 8.32501 5.1445 8.66483L4.75391 9.05933L8.45285 9.07105C10.484 9.07495 13.8235 9.07495 15.8703 9.07105L19.5887 9.05933L19.3075 8.82497C18.9677 8.53983 18.6552 8.35625 18.3584 8.27423C18.0967 8.20002 18.081 8.18439 18.0186 7.9305C17.8975 7.43054 17.503 6.84855 17.0694 6.52045C16.7726 6.29781 16.589 6.20016 16.2609 6.0908L16.0148 6.00877L15.9406 5.71973C15.7453 4.94244 15.2375 4.31358 14.5188 3.96205C14.0188 3.71597 13.597 3.64176 13.0111 3.69644Z"
        fill="#1D1B1C" />
    <path
        d="M2.25779 10.3249C2.04297 10.4694 2 10.5827 2 11.0318C2.00391 13.0317 3.06242 15.1018 4.83182 16.5588C6.7848 18.168 9.22603 19 11.9993 19C14.753 19 17.1942 18.1758 19.1276 16.59C20.9322 15.1097 21.9946 13.0512 21.9985 11.0318C21.9985 10.5827 21.9556 10.4694 21.7407 10.3249C21.6314 10.2546 21.3658 10.2506 11.9993 10.2506C2.63277 10.2506 2.36716 10.2546 2.25779 10.3249Z"
        fill="#1D1B1C" />
</svg>