<svg width="24" height="24" viewBox="0 0 24 24" fill="none" xmlns="http://www.w3.org/2000/svg">
    <path
        d="M10.6913 2.05766C7.04545 2.52643 3.88416 5.03827 2.60245 8.48374C2.13354 9.74942 1.96942 10.7846 2.00458 12.2808C2.02412 13.2379 2.08274 13.6949 2.28594 14.4879C3.21986 18.16 6.24438 21.0507 9.93319 21.8047C11.2344 22.0664 12.8522 22.0664 14.1027 21.7969C16.4746 21.2851 18.5652 19.9413 20.0266 17.992C21.0778 16.5896 21.7265 14.984 21.9414 13.2457C22.0195 12.6128 22.0195 11.3823 21.9414 10.7456C21.7694 9.34706 21.2849 7.96028 20.562 6.78444C18.952 4.16323 16.2714 2.42877 13.2469 2.05375C12.6412 1.97953 11.2852 1.98343 10.6913 2.05766Z"
        fill="#1D1B1C" />
    <path
        d="M15.3503 7.11412C15.3981 6.8981 15.4091 6.74047 15.4118 6.29697L15.4118 6.29683C15.4132 5.90005 15.3982 5.61935 15.3573 5.4204C15.3162 5.22078 15.2474 5.09525 15.1346 5.01926C15.0912 4.9894 15.0532 4.97006 14.9992 4.95987C14.9482 4.95025 14.8843 4.94911 14.7902 4.95047L14.7898 4.95047C14.6643 4.95325 14.4697 4.96982 14.3543 4.98945C13.1392 5.19625 12.2769 5.73869 11.8558 6.57498C11.6036 7.07204 11.474 7.90212 11.5377 8.59805C11.5445 8.67976 11.55 8.75508 11.553 8.81046C11.5533 8.81515 11.5535 8.81969 11.5538 8.82406L15.3503 7.1139C15.3503 7.11398 15.3503 7.11405 15.3503 7.11412ZM15.3503 7.11412C15.2613 7.52659 15.1054 7.90232 14.9085 8.17966L14.9081 8.18029C14.8829 8.21462 14.8605 8.24881 14.8445 8.27568C14.8431 8.27813 14.8417 8.28051 14.8404 8.2828C14.8477 8.28351 14.856 8.28394 14.865 8.28394C14.8979 8.28394 14.9529 8.29227 15.0158 8.30431C15.0803 8.31665 15.1573 8.33376 15.2364 8.35304C15.394 8.39143 15.5632 8.43919 15.6596 8.4759L15.6598 8.47597M15.3503 7.11412L15.6598 8.47597M11.3114 18.966L11.3115 18.9659C11.5943 18.9115 11.7987 18.8848 12.002 18.8848C12.2053 18.8848 12.4097 18.9115 12.6925 18.9659L12.6926 18.966C13.6678 19.1514 14.3923 19.0183 15.1644 18.5018C15.9532 17.9789 16.5787 17.2136 17.1113 16.1361C17.9136 14.5155 18.2299 12.7048 17.9499 11.3184M11.3114 18.966L17.9499 11.3184M11.3114 18.966C10.4707 19.1263 9.89652 19.0629 9.2264 18.7264C8.50016 18.3632 7.91213 17.8038 7.34045 16.9316C6.41834 15.5317 5.83807 13.4315 5.96817 11.953M11.3114 18.966L5.96817 11.953M17.9499 11.3184C17.6752 9.94978 16.8631 8.9394 15.6598 8.47597M17.9499 11.3184L15.6598 8.47597M9.97682 9.24201L9.97698 9.24204C10.5453 9.3279 11.0109 9.56077 11.4653 9.99183L11.4654 9.99199C11.6095 10.1274 11.6969 10.2064 11.7706 10.2501C11.8498 10.2971 11.9131 10.3036 12.002 10.3036C12.0891 10.3036 12.1518 10.2979 12.2304 10.252C12.3035 10.2093 12.3902 10.1316 12.5329 9.99762M9.97682 9.24201L12.4988 9.96103M9.97682 9.24201C9.50868 9.16965 9.07316 9.22571 8.61993 9.41116L8.60099 9.36488L8.61993 9.41116C7.76279 9.76182 7.20626 10.4952 6.98379 11.5844L6.98377 11.5846C6.94647 11.765 6.92853 12.0921 6.93059 12.4342C6.93264 12.7756 6.95457 13.1258 6.995 13.3513L6.995 13.3513C7.21217 14.5664 7.64767 15.6576 8.20736 16.4869C8.76768 17.317 9.4488 17.8796 10.1552 18.0478C10.3073 18.084 10.4283 18.1003 10.5703 18.0957C10.7133 18.0911 10.8793 18.0652 11.1217 18.0147L11.1217 18.0147C11.496 17.9373 11.5983 17.9289 12.002 17.9289C12.4057 17.9289 12.508 17.9373 12.8823 18.0147L12.8823 18.0147C13.1247 18.0652 13.2907 18.0911 13.4337 18.0957C13.5757 18.1003 13.6967 18.084 13.8488 18.0478L13.8489 18.0478C14.3017 17.941 14.7358 17.6815 15.1537 17.2679L15.1538 17.2678C16.0448 16.3883 16.722 14.9604 17.009 13.3514L17.009 13.3513C17.0494 13.1258 17.0714 12.7756 17.0734 12.4342C17.0755 12.0921 17.0575 11.765 17.0202 11.5846L17.0202 11.5844C16.8735 10.8647 16.603 10.3359 16.1754 9.92602L16.1754 9.92597C15.4055 9.18581 14.2532 9.00331 13.2865 9.47002M9.97682 9.24201L13.2647 9.42504M12.5329 9.99762C12.533 9.99757 12.533 9.99752 12.5331 9.99747L12.4988 9.96103M12.5329 9.99762C12.5329 9.99764 12.5329 9.99767 12.5328 9.99769L12.4988 9.96103M12.5329 9.99762C12.807 9.74354 12.9951 9.61251 13.2865 9.47002M12.4988 9.96103C12.7761 9.70397 12.9682 9.56998 13.2647 9.42504M13.2865 9.47002C13.2865 9.47003 13.2865 9.47005 13.2864 9.47007L13.2647 9.42504M13.2865 9.47002C13.2866 9.47 13.2866 9.46998 13.2866 9.46996L13.2647 9.42504M5.96817 11.953C6.11497 10.2421 6.9507 9.01461 8.34416 8.47599C8.85498 8.27855 9.63273 8.2011 10.1823 8.2956L5.96817 11.953ZM14.3666 7.06275L14.3667 7.06249C14.442 6.79457 14.4825 6.37669 14.4611 6.11757L14.5109 6.11344L14.4611 6.11784C14.4598 6.10285 14.4586 6.08914 14.4576 6.07655C14.454 6.03439 14.4516 6.00487 14.4471 5.98257C14.4443 5.96876 14.4415 5.96228 14.4398 5.95947C14.4396 5.95909 14.4394 5.95882 14.4393 5.95864C14.4379 5.95813 14.4329 5.95668 14.4207 5.95718C14.4082 5.9577 14.3915 5.96006 14.3684 5.96477C14.3335 5.97191 14.2893 5.9833 14.2314 5.99825C14.2123 6.00317 14.1917 6.00848 14.1694 6.01416C13.8735 6.0926 13.6852 6.16507 13.4533 6.29135C13.1094 6.47873 12.8705 6.71171 12.7166 7.0246C12.5621 7.33874 12.4912 7.73763 12.4912 8.2601V8.57854L12.5204 8.57239C12.5205 8.57235 12.5207 8.57231 12.5209 8.57227C12.5656 8.5617 12.6941 8.52175 12.8073 8.48601C13.6696 8.19685 14.1857 7.71991 14.3666 7.06275Z"
        fill="white" stroke="white" stroke-width="0.1" />
</svg>