<svg width="24" height="24" viewBox="0 0 24 24" fill="none" xmlns="http://www.w3.org/2000/svg">
    <path
        d="M11.6271 2.13001C10.8812 2.65331 10.3898 3.30549 10.2187 3.98892C10.1046 4.44193 10.1485 5.0902 10.324 5.51197C10.5127 5.96107 10.732 6.26569 11.1532 6.65621L11.5174 6.99207V7.49194V7.98791L11.3287 7.7614C10.8856 7.22638 10.267 6.86319 9.53425 6.71089C8.79277 6.55468 7.4195 6.7187 7.09921 7.00378C6.98953 7.09751 6.98953 7.11313 7.01146 7.45289C7.10799 8.81973 8.0469 9.90149 9.40263 10.21C9.94667 10.3311 10.7759 10.3076 11.4209 10.1436L11.5174 10.1202V10.952C11.513 11.5964 11.5042 11.7682 11.4647 11.7096C11.3375 11.5105 11.004 11.1746 10.7803 11.0145C9.89402 10.3975 8.74451 10.2452 7.53357 10.581C7.02463 10.7255 6.98075 10.7841 7.01146 11.241C7.1036 12.5258 7.96793 13.5607 9.271 13.9473C9.57374 14.0372 9.67904 14.0489 10.245 14.045C10.7408 14.045 10.9514 14.0294 11.2015 13.9669L11.5174 13.8927V14.7089V15.5251L11.3287 15.2986C10.8856 14.7635 10.267 14.4004 9.53425 14.248C8.79277 14.0918 7.4195 14.2559 7.09921 14.5409C6.98953 14.6347 6.98953 14.6503 7.01146 14.99C7.07727 15.9117 7.55551 16.7708 8.27944 17.2551C8.61288 17.4816 9.08673 17.6808 9.46405 17.7628C9.96422 17.8682 10.8198 17.8331 11.4209 17.6808L11.5174 17.6573V19.61C11.5174 20.6839 11.5305 21.6134 11.5437 21.6837C11.5876 21.8828 11.7587 22 12 22C12.2413 22 12.4124 21.8828 12.4563 21.6837C12.4695 21.6134 12.4826 20.6839 12.4826 19.61V17.6573L12.5835 17.6808C13.1802 17.8331 14.0358 17.8682 14.5359 17.7628C14.9133 17.6808 15.3871 17.4816 15.7206 17.2551C16.4445 16.7708 16.9227 15.9117 16.9885 14.99C17.0105 14.6503 17.0105 14.6347 16.9008 14.5409C16.5805 14.2559 15.2072 14.0918 14.4657 14.248C13.733 14.4004 13.1144 14.7635 12.6713 15.2986L12.4826 15.5251V14.7089V13.8927L12.8029 13.9669C13.0398 14.0254 13.268 14.045 13.733 14.0489C14.4307 14.0528 14.7465 13.9903 15.3125 13.7286C15.7557 13.5256 16.3085 13.0218 16.5498 12.6078C16.7911 12.1939 16.9534 11.6784 16.9885 11.241C17.0192 10.7841 16.9754 10.7255 16.4664 10.581C15.7513 10.3818 14.9703 10.3545 14.3517 10.5029C14.0051 10.5849 13.5268 10.7997 13.2197 11.0145C12.996 11.1746 12.6625 11.5105 12.5353 11.7096C12.4958 11.7682 12.487 11.5964 12.4826 10.952V10.1202L12.5835 10.1436C13.1802 10.2959 14.0358 10.3311 14.5359 10.2256C14.9133 10.1436 15.3871 9.94445 15.7206 9.71794C16.4445 9.23369 16.9227 8.37453 16.9885 7.45289C17.0105 7.11313 17.0105 7.09751 16.9008 7.00378C16.5805 6.7187 15.2072 6.55468 14.4657 6.71089C13.733 6.86319 13.1144 7.22638 12.6713 7.7614L12.4826 7.98791V7.49194V6.99207L12.8468 6.65621C13.5049 6.04699 13.7989 5.47292 13.834 4.71139C13.8471 4.39506 13.834 4.1998 13.7813 3.98501C13.6102 3.30159 13.0705 2.59474 12.3466 2.11048C12.1185 1.95818 11.8596 1.96208 11.6271 2.13001Z"
        fill="url(#paint0_linear_297_1204)" />
    <defs>
        <linearGradient id="paint0_linear_297_1204" x1="5.35937" y1="24.5758" x2="20.4181" y2="23.7377"
            gradientUnits="userSpaceOnUse">
            <stop stop-color="#ED1653" />
            <stop offset="1" stop-color="#F15822" />
        </linearGradient>
    </defs>
</svg>