<svg width="24" height="24" viewBox="0 0 24 24" fill="currentColor" xmlns="http://www.w3.org/2000/svg">
    <path
        d="M6.27703 2.04566C5.99578 2.16681 5.6911 2.54198 5.40594 3.10474C5.01922 3.87461 4.89031 4.69139 5.02703 5.53161C5.08953 5.91851 5.26141 6.45 5.43719 6.80172C5.56219 7.04792 5.99188 7.70056 6.07391 7.77091C6.12078 7.80608 6.29656 7.75137 6.945 7.50907C8.30047 6.99321 8.96844 6.79781 9.89031 6.64149C10.738 6.5008 11.1169 6.46954 12.0388 6.47345C13.8122 6.47735 14.9802 6.71965 17.0544 7.50516C17.7028 7.75527 17.8786 7.80608 17.9216 7.77091C18.0075 7.70056 18.4333 7.04792 18.5622 6.80172C18.8434 6.24287 19.0309 5.48081 19.0309 4.90242C19.0309 4.51162 18.9333 3.97231 18.7927 3.5737C18.5739 2.95232 18.1716 2.33095 17.8513 2.11992L17.6872 2.01049L12.0427 2.00267C7.445 1.99486 6.37078 2.00267 6.27703 2.04566Z"
        fill="#1D1B1C" />
    <path
        d="M11.2187 7.61852C10.3711 7.67715 9.53122 7.82956 8.72654 8.07185C8.25779 8.21645 6.84372 8.73622 6.79685 8.78311C6.78122 8.79875 6.8281 8.98242 6.90232 9.18955C7.10935 9.76793 7.17185 10.1626 7.17185 10.8622C7.16794 11.5109 7.11325 11.933 6.93747 12.5817C6.72263 13.3672 6.29685 14.3051 5.78904 15.0946C5.64841 15.3173 5.55857 15.4932 5.5781 15.5127C5.67185 15.6026 7.1406 16.009 8.04685 16.1927C9.43357 16.478 10.2304 16.5483 12 16.5483C13.8047 16.5483 14.5547 16.478 16.0547 16.1771C16.8984 16.0051 18.3203 15.6065 18.4218 15.5127C18.4414 15.4932 18.3476 15.3134 18.2109 15.0946C17.7031 14.3051 17.2773 13.3672 17.0625 12.5817C16.8867 11.933 16.832 11.5109 16.8281 10.8622C16.8281 10.1587 16.8906 9.77184 17.1015 9.17782C17.1797 8.96288 17.2343 8.77921 17.2304 8.7753C17.1797 8.73622 15.5429 8.15001 15.2109 8.05231C14 7.69278 12.5156 7.53255 11.2187 7.61852ZM12.3125 13.7932C12.5195 13.9417 12.5664 14.0785 12.5664 14.5357C12.5664 14.8757 12.5547 14.9695 12.4883 15.075C12.2656 15.4424 11.7343 15.4502 11.5195 15.0907C11.375 14.8405 11.3867 14.1762 11.5429 13.9456C11.7265 13.6759 12.0547 13.6095 12.3125 13.7932Z"
        fill="#1D1B1C" />
    <path
        d="M3.92188 9.02536C3.67188 9.08398 3.48438 9.338 3.48438 9.61156C3.48438 9.81087 3.52344 9.88122 3.78516 10.186L3.99609 10.4283L3.20312 10.4401C2.46875 10.4518 2.39844 10.4596 2.27344 10.5378C2.07812 10.6589 2 10.8113 2 11.0732C2 11.2764 2.01172 11.3076 2.15234 11.4601L2.30859 11.6242L3.17188 11.6359L4.03516 11.6476L3.80469 11.9095C3.51953 12.2338 3.48438 12.3003 3.48438 12.5152C3.48438 12.7028 3.58594 12.8904 3.76172 13.0233C3.89062 13.1171 4.19922 13.1288 4.36328 13.0428C4.47656 12.9803 5.82031 11.5734 5.95312 11.3741C6 11.3076 6.02344 11.1982 6.02344 11.0575C6.02344 10.9168 6 10.8074 5.95312 10.741C5.83203 10.5573 4.48438 9.13478 4.38281 9.08398C4.23828 9.00973 4.07031 8.99019 3.92188 9.02536Z"
        fill="#1D1B1C" />
    <path
        d="M19.7144 9.0449C19.6284 9.07616 19.5542 9.10352 19.5542 9.10352C19.5308 9.10743 18.0972 10.6628 18.0464 10.741C17.9995 10.8074 17.9761 10.9168 17.9761 11.0575C17.9761 11.1982 17.9995 11.3076 18.0464 11.3741C18.1792 11.5734 19.5229 12.9803 19.6362 13.0428C19.8003 13.1288 20.1089 13.1171 20.2378 13.0233C20.4136 12.8904 20.5151 12.7028 20.5151 12.5152C20.5151 12.3003 20.48 12.2338 20.1948 11.9095L19.9644 11.6476L20.8276 11.6359L21.6909 11.6242L21.8472 11.4601C21.9878 11.3076 21.9995 11.2764 21.9995 11.0732C21.9995 10.8113 21.9214 10.6589 21.7261 10.5378C21.6011 10.4596 21.5308 10.4518 20.7964 10.4401L20.0034 10.4283L20.2144 10.186C20.48 9.88122 20.5151 9.81478 20.5151 9.59984C20.5151 9.1895 20.105 8.90421 19.7144 9.0449Z"
        fill="#1D1B1C" />
    <path
        d="M4.75346 16.9626C4.2144 18.2327 3.9644 19.3816 3.92924 20.7885C3.9058 21.6483 3.92533 21.7382 4.18315 21.9101L4.31596 22H11.9996H19.6831L19.816 21.9101C20.0738 21.7382 20.0933 21.6483 20.0699 20.7885C20.0308 19.3738 19.7847 18.2327 19.2456 16.9626C19.1402 16.7242 19.0425 16.5288 19.0191 16.5288C18.9996 16.5288 18.691 16.6226 18.3316 16.7398C16.3081 17.3964 14.2847 17.7051 11.9996 17.7051C9.7144 17.7051 7.7183 17.4003 5.67143 16.7398C5.30815 16.6226 4.99955 16.5288 4.97612 16.5288C4.95659 16.5288 4.85893 16.7242 4.75346 16.9626Z"
        fill="#1D1B1C" />
</svg>