<svg width="24" height="24" viewBox="0 0 24 24" fill="none" xmlns="http://www.w3.org/2000/svg">
    <path
        d="M10.777 2.05739C9.02516 2.29576 7.40624 2.98352 5.90854 4.1363C5.4823 4.46456 4.4695 5.47666 4.14102 5.9026C2.97571 7.41489 2.29138 9.02879 2.05675 10.799C1.99028 11.3343 1.97855 12.4871 2.04111 13.0459C2.23663 14.8513 3.05392 16.7583 4.30526 18.3448L4.5477 18.6496L5.74821 17.4617C6.40516 16.8052 6.98782 16.2386 7.04256 16.2034C7.09731 16.1682 7.21462 16.1409 7.3163 16.1409C7.63304 16.1409 7.86376 16.3714 7.86376 16.6879C7.86376 16.7895 7.83638 16.9068 7.80119 16.9615C7.766 17.0162 7.19898 17.5984 6.54203 18.2549L5.35326 19.4546L5.65827 19.6969C7.0934 20.8301 8.71623 21.5726 10.4446 21.8891C11.0156 21.9946 12.4194 22.0337 13.0294 21.9673C15.2271 21.7172 17.2645 20.7403 18.9068 19.1498C20.252 17.8446 21.1749 16.3206 21.6833 14.5465C21.9453 13.6399 22 13.2022 22 11.9987C21.9961 10.8498 21.9687 10.5723 21.7615 9.75172C21.5542 8.91937 21.2062 8.03231 20.7995 7.28985C20.5492 6.84046 20.0252 6.0511 19.7124 5.65251L19.4699 5.3477L18.2694 6.53565C17.6125 7.19215 17.0298 7.75877 16.9751 7.79394C16.9203 7.82911 16.803 7.85647 16.7014 7.85647C16.3846 7.85647 16.1539 7.62591 16.1539 7.30938C16.1539 7.20778 16.1813 7.09055 16.2165 7.03584C16.2517 6.98113 16.8187 6.39888 17.4756 5.74238L18.6644 4.54271L18.3594 4.30043C16.7757 3.04996 14.8634 2.23324 13.0568 2.03785C12.5406 1.97924 11.2541 1.99096 10.777 2.05739ZM12.2591 5.41413C12.4703 5.51574 13.0216 6.22303 13.3697 6.84046C13.6864 7.40708 13.8937 8.13782 13.9015 8.72789C13.9054 8.97408 13.921 9.10303 13.9445 9.09131C14.3199 8.95063 15.1489 8.79432 15.5908 8.78651C15.9466 8.77478 16.1109 8.84122 16.236 9.04051C16.4433 9.36485 16.1774 10.9084 15.7785 11.6939L15.6846 11.8775L15.8137 11.901C16.3103 12.0104 16.4042 12.3347 16.2321 13.3468C15.9701 14.8826 15.2506 15.965 14.1517 16.4691C13.749 16.6567 13.4635 16.727 12.9786 16.7544L12.5563 16.7778V17.5203C12.5563 18.1963 12.5485 18.2745 12.4781 18.3878C12.2747 18.7161 11.7351 18.7161 11.5357 18.3917C11.4692 18.2862 11.4614 18.1846 11.4614 17.5242V16.7778L11.0429 16.7544C10.5541 16.727 10.2687 16.6567 9.8659 16.4691C8.76707 15.965 8.04755 14.8826 7.78555 13.3468C7.61349 12.3347 7.70734 12.0104 8.20397 11.9049L8.32519 11.8775L8.19614 11.5962C8.01235 11.1937 7.87158 10.7208 7.78164 10.2089C7.59003 9.08349 7.73471 8.76697 8.42686 8.78651C8.86874 8.79432 9.69775 8.95063 10.0732 9.09131C10.0966 9.10303 10.1123 8.97408 10.1162 8.72789C10.1279 7.76268 10.5972 6.69196 11.4379 5.70721C11.7273 5.36724 11.9736 5.27736 12.2591 5.41413Z"
        fill="#1D1B1C" />
    <path
        d="M11.8252 7.04364C11.5163 7.51648 11.3364 7.97759 11.266 8.47778C11.1722 9.11865 11.3638 9.73607 11.7978 10.1933L12.009 10.416L12.228 10.1816C12.881 9.47816 12.9553 8.5364 12.4391 7.50085C12.2866 7.18823 12.0442 6.80136 12.009 6.80136C11.9973 6.80136 11.9151 6.91078 11.8252 7.04364Z"
        fill="#1D1B1C" />
    <path
        d="M8.90433 10.1112C8.91997 10.1933 8.97471 10.4082 9.02555 10.5919C9.37749 11.8384 10.1322 12.5027 11.1998 12.5067H11.4657L11.4422 12.2409C11.3601 11.3031 10.9886 10.7638 10.1478 10.3418C9.8702 10.205 9.35794 10.0409 9.0451 9.98617L8.87695 9.95881L8.90433 10.1112Z"
        fill="#1D1B1C" />
    <path
        d="M14.6443 10.0604C13.9952 10.2284 13.5259 10.4746 13.1584 10.842C12.7986 11.2015 12.6344 11.6001 12.5757 12.2409L12.5522 12.5067H12.8182C13.8857 12.5027 14.6404 11.8384 14.9924 10.5919C15.0432 10.4082 15.0979 10.1933 15.1136 10.1112C15.1449 9.93536 15.141 9.93536 14.6443 10.0604Z"
        fill="#1D1B1C" />
    <path
        d="M8.90462 13.2374C8.95546 13.5226 9.11969 14.0541 9.23701 14.3003C9.63587 15.1639 10.3241 15.6328 11.1844 15.6328H11.466L11.4425 15.3671C11.3838 14.7106 11.2235 14.3354 10.8364 13.9486C10.5118 13.6242 9.96044 13.339 9.37387 13.1905C8.86552 13.0615 8.87334 13.0615 8.90462 13.2374Z"
        fill="#1D1B1C" />
    <path
        d="M14.6287 13.1905C14.4253 13.2452 14.0773 13.3781 13.8544 13.4875C13.5299 13.6438 13.393 13.7376 13.1818 13.9486C12.7947 14.3354 12.6344 14.7106 12.5757 15.3671L12.5522 15.6328H12.8612C13.7958 15.6328 14.5739 14.9919 14.9376 13.9173C15.0041 13.718 15.137 13.1866 15.137 13.1084C15.137 13.0772 14.9924 13.1006 14.6287 13.1905Z"
        fill="#1D1B1C" />
</svg>