<svg width="24" height="24" viewBox="0 0 24 24" fill="none" xmlns="http://www.w3.org/2000/svg">
    <path
        d="M7.64252 2.10363C7.50183 2.1757 7.40335 2.27029 7.32832 2.40542C7.22515 2.58559 7.22046 2.64865 7.22046 3.41437V4.23414L6.8031 4.28819C5.65886 4.43683 4.63186 4.95933 4.00346 5.71154C3.52044 6.28808 3.21094 7.03128 3.07025 7.91411C3.00929 8.33301 3.00929 8.41409 3.06556 8.54921C3.20625 8.87352 2.38559 8.84649 12.0131 8.84649H20.6793L20.8294 8.71587C20.9795 8.58975 20.9842 8.57174 20.9748 8.27896C20.956 7.6889 20.745 6.9412 20.4308 6.34213C19.8493 5.23859 18.6582 4.47737 17.2044 4.28819L16.787 4.23414V3.41437C16.787 2.64865 16.7824 2.58559 16.6792 2.40542C16.5573 2.1802 16.2571 2.00003 16.018 2.00003C15.821 2.00003 15.4787 2.17119 15.3614 2.32884C15.2723 2.44595 15.263 2.53153 15.2489 3.31077L15.2348 4.16207H12.0038H8.77269L8.75862 3.31527C8.74455 2.50901 8.73986 2.46848 8.632 2.31984C8.50539 2.14867 8.20995 2.00454 7.98954 2.00003C7.90982 2.00003 7.75506 2.04508 7.64252 2.10363Z"
        fill="url(#paint0_linear_297_1005)" />
    <path
        d="M3.79722 10.2833C3.46895 10.3509 3.22979 10.5265 3.07503 10.8148C3.00938 10.9454 3 11.3238 3 14.4452C3 18.3009 3.00469 18.3684 3.30013 19.2152C3.86756 20.8323 5.18531 21.7556 7.19242 21.9493C7.89584 22.0169 16.1119 22.0169 16.8153 21.9493C18.738 21.7647 20.037 20.8998 20.6372 19.4134C20.7169 19.2152 20.8248 18.8819 20.8811 18.6702C20.9749 18.2964 20.9796 18.1658 20.9936 14.6254C21.0077 11.2878 21.003 10.9544 20.9327 10.8193C20.8248 10.6121 20.6841 10.4725 20.4684 10.3644L20.2808 10.2653L12.1211 10.2608C7.63323 10.2563 3.88632 10.2653 3.79722 10.2833ZM8.8525 13.4228C9.2089 13.5624 9.46682 13.9228 9.47151 14.2741C9.47151 14.3732 9.41993 14.5579 9.35897 14.684C9.19483 15.0263 8.89002 15.2065 8.47734 15.202C7.9568 15.202 7.54882 14.7966 7.54882 14.2921C7.54882 13.621 8.22411 13.1705 8.8525 13.4228ZM12.4071 13.4363C12.7167 13.5714 12.9886 13.9678 12.9886 14.2786C12.9886 14.5939 12.7448 14.9542 12.4212 15.1119C11.8725 15.3776 11.1457 15.0173 11.0425 14.4227C10.9487 13.8867 11.427 13.3507 12.0038 13.3507C12.1211 13.3507 12.2993 13.3912 12.4071 13.4363ZM15.8352 13.4048C16.487 13.6795 16.6699 14.4272 16.2056 14.9182C15.6288 15.5308 14.5362 15.0984 14.5362 14.2651C14.5362 13.666 15.2771 13.175 15.8352 13.4048ZM9.04946 16.882C9.27924 17.0262 9.47151 17.3775 9.47151 17.6523C9.46682 18.1342 9.00256 18.5756 8.50079 18.5756C8.21942 18.5756 7.85833 18.3865 7.70826 18.1703C7.45503 17.8009 7.5113 17.2604 7.83957 16.9676C8.14438 16.6929 8.69306 16.6523 9.04946 16.882ZM12.454 16.8415C13.0074 17.1028 13.1434 17.7694 12.7401 18.2378C12.2477 18.8144 11.277 18.6072 11.0659 17.8775C10.9018 17.3099 11.3755 16.7289 12.0038 16.7289C12.1398 16.7289 12.304 16.7694 12.454 16.8415ZM15.8868 16.7965C16.2807 16.9586 16.4776 17.2739 16.4495 17.7018C16.426 18.0757 16.2619 18.3189 15.929 18.4675C15.6476 18.5937 15.4037 18.6027 15.1552 18.5036C14.5456 18.2603 14.3533 17.5757 14.7519 17.0622C14.9817 16.7649 15.5022 16.6433 15.8868 16.7965Z"
        fill="url(#paint1_linear_297_1005)" />
    <defs>
        <linearGradient id="paint0_linear_297_1005" x1="0.0783836" y1="9.72886" x2="25.0694" y2="2.43477"
            gradientUnits="userSpaceOnUse">
            <stop stop-color="#ED1653" />
            <stop offset="1" stop-color="#F15822" />
        </linearGradient>
        <linearGradient id="paint1_linear_297_1005" x1="0.0468747" y1="23.512" x2="26.4671" y2="19.0032"
            gradientUnits="userSpaceOnUse">
            <stop stop-color="#ED1653" />
            <stop offset="1" stop-color="#F15822" />
        </linearGradient>
    </defs>
</svg>