<svg width="24" height="24" viewBox="0 0 24 24" fill="none" xmlns="http://www.w3.org/2000/svg">
    <path
        d="M11.4971 2.04942C10.154 2.27217 8.93358 2.83493 7.8918 3.70252C7.2965 4.19884 6.62306 5.0039 6.21751 5.70735C5.45105 7.03999 5.11619 8.39608 5.11619 10.1899V10.8269L4.5581 12.7653C4.24928 13.8283 4 14.7623 4 14.8365C4 15.0124 4.09674 15.2274 4.2158 15.3094C4.26789 15.3446 4.74785 15.5361 5.2799 15.7315L6.25099 16.0871L6.2696 17.5722C6.29192 19.2136 6.28448 19.1784 6.5412 19.3425C6.65282 19.4168 6.7384 19.4207 8.15969 19.4207H9.65539V20.4837C9.65539 21.6756 9.66655 21.7382 9.91211 21.9101L10.0386 22H13.6439H17.2492L17.4055 21.8476L17.5618 21.6913L17.5729 18.6352L17.5804 15.5791L17.9078 15.2234C18.4659 14.6138 18.8528 14.0471 19.1989 13.3241C20.6834 10.2133 20.0658 6.48505 17.6697 4.10505C16.6428 3.08505 15.3889 2.41286 13.9416 2.10413C13.4207 1.9947 12.0217 1.96344 11.4971 2.04942ZM13.3984 4.50758C13.9304 4.68735 14.5034 5.16413 14.775 5.64482C14.8531 5.78942 14.8903 5.82068 14.9796 5.82068C15.1582 5.82068 15.6345 6.00045 15.9135 6.17241C16.7283 6.68436 17.2381 7.70436 17.1562 8.66574C17.0558 9.81861 16.2595 10.7878 15.1954 11.0575C14.9275 11.1239 14.7527 11.1356 13.9527 11.1356H13.0226L12.7547 11.6554L12.4868 12.1713L13.164 12.1908C13.8932 12.2103 13.949 12.226 14.083 12.4253C14.2616 12.6871 14.2467 12.734 13.6923 14.0315C13.4132 14.6841 13.1379 15.2664 13.0858 15.329C12.9407 15.4892 12.7361 15.5361 12.5352 15.454C12.3305 15.372 12.2152 15.2039 12.1966 14.9694C12.1854 14.8092 12.2189 14.7037 12.498 14.0667L12.8142 13.3437L12.1185 13.3241C11.3371 13.3007 11.2367 13.2694 11.099 13.0115C10.9799 12.7848 11.0209 12.6285 11.3967 11.9133C11.5827 11.5577 11.7464 11.2411 11.7613 11.2021C11.7836 11.1395 11.7278 11.1356 11.0655 11.1356C10.1949 11.1356 9.95676 11.0887 9.46936 10.8386C9.18287 10.6901 9.06008 10.5963 8.81452 10.3384C8.56896 10.0765 8.48338 9.95149 8.342 9.65057C7.94761 8.80643 7.97365 7.90758 8.41641 7.11034C8.59872 6.78597 9.01172 6.35218 9.32053 6.16068C9.57725 6.00436 10.0758 5.82068 10.2433 5.82068C10.3251 5.82068 10.3698 5.77769 10.4851 5.5862C10.7827 5.1016 11.3297 4.66781 11.8506 4.49585C12.1929 4.38252 12.2338 4.37861 12.6877 4.39034C13.0077 4.40206 13.164 4.42551 13.3984 4.50758Z"
        fill="#1D1B1C" />
    <path
        d="M12.1449 5.57836C11.9254 5.65652 11.665 5.82456 11.5199 5.9887C11.4715 6.04342 11.3636 6.23491 11.2743 6.41468C11.0734 6.83284 10.9878 6.89537 10.5785 6.92663C10.1209 6.9579 9.87532 7.06732 9.57767 7.37997C9.2949 7.67698 9.17956 7.94273 9.14608 8.3648C9.10887 8.81813 9.30606 9.31445 9.64836 9.63491C9.70417 9.68572 9.85672 9.78732 9.99066 9.85376L10.2325 9.98273H12.5951H14.9577L15.181 9.88893C15.4935 9.75606 15.8618 9.36916 15.9809 9.0448C16.0963 8.73606 16.1037 8.23974 15.9995 7.94273C15.8581 7.53629 15.5009 7.15721 15.1214 7.01652C15.021 6.97744 14.794 6.93445 14.6229 6.91882C14.2248 6.88755 14.1466 6.82502 13.9643 6.43422C13.7932 6.05905 13.5625 5.81284 13.2351 5.65261C12.9151 5.49629 12.4723 5.46502 12.1449 5.57836Z"
        fill="#1D1B1C" />
</svg>