<svg width="24" height="24" viewBox="0 0 24 24" fill="none" xmlns="http://www.w3.org/2000/svg">
    <path
        d="M6.04275 2.04778C5.04286 2.27442 4.1939 2.87228 3.63547 3.73977C3.14118 4.50566 2.92988 5.4005 3.02044 6.33833C3.16759 7.89746 4.2354 18.4714 4.26559 18.6824C4.48443 20.1947 5.58619 21.4647 7.04641 21.8867C7.3294 21.9726 7.41618 21.9726 9.38578 21.9883L11.4308 22L11.4422 19.5851C11.4535 17.2523 11.4572 17.1663 11.5289 17.0373C11.6459 16.8302 11.7893 16.7404 12.0006 16.7404C12.2119 16.7404 12.3553 16.8302 12.4722 17.0373C12.5439 17.1663 12.5477 17.2523 12.559 19.5851L12.5703 22L14.6154 21.9883C16.585 21.9726 16.6718 21.9726 16.9548 21.8867C18.4112 21.4647 19.5167 20.1908 19.7356 18.6824C19.7658 18.4714 20.8336 7.89746 20.9807 6.33833C21.0939 5.13869 20.7053 3.98595 19.8978 3.14582C19.4337 2.66127 18.9017 2.32913 18.2452 2.11812L17.9056 2.00871L12.0949 2.00089C7.24639 1.99698 6.24273 2.0048 6.04275 2.04778ZM13.1439 4.59163C14.5022 4.78701 15.8492 5.38487 17.0189 6.30707C17.4566 6.65094 18.3244 7.51842 18.4489 7.73334C18.5357 7.88574 18.5508 8.13583 18.4791 8.26868C18.3848 8.44062 15.2493 12.1333 15.1512 12.188C15.0606 12.2388 14.6267 12.2466 12.0006 12.2466C9.37446 12.2466 8.94054 12.2388 8.84999 12.188C8.75188 12.1333 5.61638 8.44062 5.52205 8.26868C5.45036 8.13583 5.46545 7.88574 5.55224 7.73334C5.67675 7.51842 6.54458 6.65094 6.98227 6.30707C8.32552 5.24811 9.8046 4.65806 11.4912 4.51348C11.8157 4.48612 12.7062 4.52911 13.1439 4.59163Z"
        fill="#1D1B1C" />
    <path
        d="M10.8313 5.74044C10.3748 5.8225 9.94461 5.94364 9.59371 6.0765C9.2428 6.21717 8.75606 6.45163 8.75606 6.48289C8.75606 6.49852 8.85794 6.63919 8.98245 6.7994C9.23526 7.11983 9.26544 7.19407 9.23526 7.43243C9.22016 7.55748 9.17866 7.63172 9.06169 7.74114C8.9334 7.86618 8.88435 7.88962 8.74097 7.88962C8.48817 7.88962 8.40516 7.83492 8.09576 7.45197C7.93728 7.26441 7.7939 7.1081 7.77504 7.1081C7.68448 7.1081 6.74119 7.9795 6.76383 8.04593C6.77138 8.06547 7.35244 8.76883 8.05803 9.60897L9.3409 11.1329L10.1106 11.1251L10.8804 11.1134L11.3294 10.0974C11.5784 9.53863 11.801 9.058 11.8199 9.03064C11.8425 9.0072 11.9142 8.98375 11.9783 8.98375C12.0463 8.98375 12.1255 9.0072 12.1595 9.03064C12.1934 9.058 12.4236 9.53863 12.6726 10.0974L13.1216 11.1134L13.8913 11.1251L14.6611 11.1329L15.944 9.60897C16.6495 8.76883 17.2306 8.06547 17.2381 8.04593C17.2646 7.97559 16.3099 7.1042 16.2156 7.11201C16.1892 7.11201 16.0534 7.26441 15.9062 7.44416C15.6081 7.82319 15.51 7.88962 15.2648 7.88962C14.9441 7.88962 14.6837 7.5184 14.7667 7.17844C14.7818 7.12764 14.8912 6.95961 15.0195 6.7994C15.144 6.63919 15.2459 6.49852 15.2459 6.48289C15.2459 6.436 14.5818 6.13511 14.1743 5.99444C13.7932 5.86549 13.2122 5.73263 12.7896 5.68183L12.5783 5.65448L12.5594 6.09994C12.5481 6.43209 12.5255 6.57276 12.4764 6.65873C12.2613 7.02995 11.7557 7.04558 11.5407 6.68608C11.4727 6.56885 11.4539 6.47507 11.4426 6.10385L11.4237 5.66229L11.3256 5.6662C11.2728 5.6662 11.0501 5.70137 10.8313 5.74044Z"
        fill="#1D1B1C" />
</svg>