<svg width="24" height="24" viewBox="0 0 24 24" fill="none" xmlns="http://www.w3.org/2000/svg">
    <path
        d="M10.6913 2.05766C7.04545 2.52643 3.88416 5.03827 2.60245 8.48374C2.13354 9.74942 1.96942 10.7846 2.00458 12.2808C2.02412 13.2379 2.08274 13.6949 2.28594 14.4879C3.21986 18.16 6.24438 21.0507 9.93319 21.8047C11.2344 22.0664 12.8522 22.0664 14.1027 21.7969C16.4746 21.2851 18.5652 19.9413 20.0266 17.992C21.0778 16.5896 21.7265 14.984 21.9414 13.2457C22.0195 12.6128 22.0195 11.3823 21.9414 10.7456C21.7694 9.34706 21.2849 7.96028 20.562 6.78444C18.952 4.16323 16.2714 2.42877 13.2469 2.05375C12.6412 1.97953 11.2852 1.98343 10.6913 2.05766ZM12.3325 5.10467C12.5865 5.27656 13.2195 5.84299 13.5829 6.22582C14.6849 7.37822 15.3883 8.58531 15.6501 9.78067C15.6852 9.93302 15.7243 10.3002 15.736 10.5893L15.7595 11.1167H16.5059C17.3225 11.1167 17.768 11.1753 18.5574 11.3745C19.3702 11.5776 19.5186 11.7105 19.5069 12.2066C19.4796 13.0933 19.163 14.3707 18.7567 15.2184C17.8774 17.0505 16.4003 17.8904 14.2082 17.8045C13.6923 17.7849 12.8444 17.6717 12.6529 17.6013C12.5982 17.5818 12.5904 17.6365 12.5748 18.0779C12.563 18.492 12.5474 18.6053 12.481 18.7147C12.2622 19.0897 11.7307 19.0897 11.5119 18.7147C11.4455 18.6053 11.4298 18.492 11.4181 18.0779C11.4025 17.6365 11.3947 17.5818 11.3399 17.6013C11.1524 17.6717 10.3005 17.7849 9.78861 17.8045C7.59642 17.8904 6.11152 17.0466 5.23621 15.2184C4.82981 14.3707 4.51329 13.0933 4.48594 12.2066C4.47422 11.7105 4.62271 11.5776 5.4355 11.3745C6.22484 11.1753 6.67031 11.1167 7.48701 11.1167H8.23337L8.25682 10.5698C8.28026 9.96428 8.38577 9.45644 8.59287 8.93688C9.06179 7.76495 9.96836 6.54615 11.1328 5.53438C11.6682 5.06952 11.7737 5.00311 11.9964 5.00311C12.1293 5.00311 12.2231 5.03045 12.3325 5.10467Z"
        fill="url(#paint0_linear_297_1124)" />
    <path
        d="M11.3713 6.86646C10.3514 7.88995 9.75745 8.82358 9.48783 9.82754C9.36278 10.2846 9.36278 11.1831 9.48783 11.6167C9.76527 12.5777 10.3045 13.484 11.0978 14.316L11.3908 14.6207L11.4104 12.6558C11.4299 10.7651 11.4338 10.683 11.5081 10.5502C11.7308 10.1752 12.2623 10.1752 12.485 10.5502C12.5592 10.683 12.5631 10.7651 12.5827 12.6558L12.6022 14.6246L12.9226 14.2848C13.5322 13.6441 14.1067 12.7652 14.345 12.1167C14.5482 11.5542 14.6264 11.1088 14.6029 10.5893C14.5639 9.65956 14.2317 8.84311 13.4853 7.83526C13.1806 7.42117 12.0903 6.29222 11.9965 6.29222C11.9692 6.29222 11.6839 6.55004 11.3713 6.86646Z"
        fill="url(#paint1_linear_297_1124)" />
    <path
        d="M6.73217 12.2691C6.48208 12.3003 5.65756 12.4566 5.63803 12.4761C5.63412 12.48 5.66538 12.6871 5.70836 12.9332C5.9819 14.5348 6.57586 15.6364 7.48243 16.2107C7.74815 16.3786 8.26787 16.5583 8.70553 16.6286C9.2018 16.7107 10.5929 16.6677 10.589 16.5701C10.5851 16.5583 10.0458 16.1755 9.38936 15.7263C8.72897 15.2731 8.15846 14.859 8.11938 14.8043C7.93963 14.5621 8.01387 14.2145 8.2835 14.0348C8.39291 13.9606 8.45934 13.9449 8.61565 13.9567C8.78759 13.9723 8.87746 14.0192 9.33466 14.3356C9.61991 14.5309 9.86219 14.6872 9.87391 14.6793C9.88173 14.6676 9.75668 14.4879 9.60038 14.277C9.44016 14.0621 9.21743 13.734 9.10411 13.5465C8.897 13.1949 8.55704 12.4878 8.55704 12.3941C8.55704 12.3667 8.51014 12.3277 8.45153 12.3042C8.31085 12.2456 7.09558 12.2261 6.73217 12.2691Z"
        fill="url(#paint2_linear_297_1124)" />
    <path
        d="M15.7162 12.269C15.6028 12.2847 15.4973 12.3081 15.4856 12.3237C15.4739 12.3355 15.4075 12.4878 15.3332 12.6597C15.1066 13.2144 14.7314 13.8472 14.2938 14.4098C14.1883 14.5465 14.1062 14.6676 14.1179 14.6754C14.1257 14.6871 14.3719 14.5309 14.6572 14.3355C15.1144 14.0191 15.2043 13.9722 15.3762 13.9566C15.5325 13.9449 15.5989 13.9605 15.7083 14.0348C15.978 14.2144 16.0522 14.5621 15.8764 14.8043C15.8334 14.859 15.2629 15.2731 14.6025 15.7262C13.946 16.1755 13.4067 16.5583 13.4028 16.57C13.4028 16.613 13.6725 16.6442 14.2273 16.6716C15.6028 16.7341 16.5797 16.3747 17.2245 15.57C17.752 14.9176 18.1076 14.0269 18.2874 12.9136C18.3265 12.6753 18.3538 12.48 18.3499 12.4761C18.3265 12.4526 17.5059 12.3042 17.2128 12.269C16.8142 12.2261 16.0249 12.2261 15.7162 12.269Z"
        fill="url(#paint3_linear_297_1124)" />
    <defs>
        <linearGradient id="paint0_linear_297_1124" x1="-1.28125" y1="24.5758" x2="28.5598" y2="21.2542"
            gradientUnits="userSpaceOnUse">
            <stop stop-color="#ED1653" />
            <stop offset="1" stop-color="#F15822" />
        </linearGradient>
        <linearGradient id="paint1_linear_297_1124" x1="8.5388" y1="15.6977" x2="16.3751" y2="15.152"
            gradientUnits="userSpaceOnUse">
            <stop stop-color="#ED1653" />
            <stop offset="1" stop-color="#F15822" />
        </linearGradient>
        <linearGradient id="paint2_linear_297_1124" x1="4.82537" y1="17.242" x2="12.1904" y2="16.3249"
            gradientUnits="userSpaceOnUse">
            <stop stop-color="#ED1653" />
            <stop offset="1" stop-color="#F15822" />
        </linearGradient>
        <linearGradient id="paint3_linear_297_1124" x1="12.5911" y1="17.2506" x2="19.9513" y2="16.338"
            gradientUnits="userSpaceOnUse">
            <stop stop-color="#ED1653" />
            <stop offset="1" stop-color="#F15822" />
        </linearGradient>
    </defs>
</svg>