<svg width="24" height="24" viewBox="0 0 24 24" fill="none" xmlns="http://www.w3.org/2000/svg">
    <path
        d="M8.85861 5.05784C9.22596 5.91744 9.41355 6.6434 9.51125 7.57161C9.55033 7.95446 9.54642 8.00863 9.49171 8.03392C9.45654 8.05198 9.22205 8.19283 8.96803 8.35175C8.13953 8.85739 7.46735 9.37026 6.60367 10.1576L6.10735 10.6091L5.7439 10.284C4.86068 9.50028 3.77034 8.99103 2.78942 8.90435C2.60184 8.8899 2.34782 8.88268 2.22667 8.8899L2 8.90435V9.33414C2 10.2046 2.27356 11.0389 2.80115 11.7721L3.02 12.0718L2.84023 12.3138C2.28919 13.0542 2 13.9211 2 14.824V15.2538H2.36345C3.55149 15.2538 4.68873 14.777 5.7908 13.8199L6.10344 13.549L6.64275 14.0294C7.89332 15.149 9.12045 15.9689 10.4218 16.5504L10.8947 16.7671L10.8673 16.9766C10.8048 17.4353 10.8478 18.9269 10.9221 18.9955C10.9611 19.0317 11.7076 18.8402 12.0671 18.7066C12.7471 18.4502 13.3099 18.1215 13.8687 17.6556L14.1501 17.4208H14.4158C14.5604 17.4208 14.9004 17.3955 15.1701 17.3667C17.9722 17.0597 20.4733 15.2899 21.7356 12.7256C22.0365 12.1116 22.0365 12.108 21.9505 11.866C21.8372 11.5518 21.3565 10.6922 21.0673 10.2876C20.2154 9.08493 19.0508 8.10615 17.765 7.49938C16.9013 7.09486 16.0259 6.85649 14.9942 6.74814C14.8066 6.72647 14.7246 6.69396 14.5448 6.57116C13.3919 5.76213 11.5043 5.1987 9.40573 5.03256C8.79608 4.98561 8.82734 4.98561 8.85861 5.05784ZM17.7377 9.80367C18.1011 9.9662 18.2145 10.4213 17.9643 10.7211C17.6751 11.075 17.042 11.0172 16.8349 10.6199C16.6825 10.3201 16.8193 9.94814 17.1319 9.80367C17.343 9.70615 17.5227 9.70615 17.7377 9.80367Z"
        fill="url(#paint0_linear_297_1210)" />
    <defs>
        <linearGradient id="paint0_linear_297_1210" x1="-1.28125" y1="20.803" x2="28.1845" y2="16.1176"
            gradientUnits="userSpaceOnUse">
            <stop stop-color="#ED1653" />
            <stop offset="1" stop-color="#F15822" />
        </linearGradient>
    </defs>
</svg>