<svg width="24" height="24" viewBox="0 0 24 24" fill="none" xmlns="http://www.w3.org/2000/svg">
    <path
        d="M15.2235 2.09842C14.0611 2.42054 12.959 3.35804 12.0698 4.77151C11.5558 5.58402 11.0325 6.7571 10.7408 7.75711L10.625 8.15615L11.1159 8.435C14.8206 10.5504 16.8814 13.9158 16.3766 17.0072C16.3164 17.3822 16.108 18.1178 15.9645 18.4591C15.9367 18.5312 15.9691 18.5408 16.3488 18.5408C17.0898 18.5408 17.9233 18.3437 18.6226 18.0072C20.4889 17.1033 21.6605 15.2475 21.9615 12.7139C22.0356 12.0889 21.9985 10.2715 21.892 9.59847C21.6373 7.94461 21.0446 6.29556 20.1832 4.84844C19.5025 3.70901 18.5439 2.76189 17.6223 2.32919C16.9277 2.00227 15.9135 1.90611 15.2235 2.09842Z"
        fill="#1D1B1C" />
    <path
        d="M5.30845 7.41095C3.54407 7.6946 2.37708 8.8773 2.07144 10.6946C1.98808 11.1802 1.97419 12.2956 2.04828 12.81C2.36781 15.1514 3.53944 17.5601 5.28066 19.4639C6.47544 20.7668 8.00365 21.6803 9.41145 21.9351C10.0505 22.0505 11.1295 22.0072 11.7269 21.8437C13.922 21.2476 15.6771 19.2764 16.0568 16.9831C16.3023 15.5072 15.9133 13.8485 14.9778 12.3917C12.9448 9.20423 8.46674 6.90133 5.30845 7.41095Z"
        fill="#1D1B1C" />
</svg>