<svg width="24" height="24" viewBox="0 0 24 24" fill="none" xmlns="http://www.w3.org/2000/svg">
    <path
        d="M8.47163 2.03591C8.29988 2.10235 7.99372 2.32513 7.90784 2.44629C7.72489 2.70424 7.65768 2.90357 7.63901 3.22015C7.62781 3.4742 7.63901 3.57582 7.70622 3.76342C7.85184 4.16208 8.19907 4.48256 8.59111 4.57246L8.79273 4.61936L8.77033 4.83823C8.72926 5.20171 8.56871 6.0342 8.4679 6.39768C8.33722 6.8745 8.13186 7.44904 7.82197 8.21508C7.49713 9.0163 7.33285 9.51267 7.22084 10.0012C7.01548 10.9197 7.02295 10.7673 7.00801 15.6684C6.98935 20.7337 6.98188 20.5148 7.23951 21.0034C7.46726 21.4294 7.80703 21.7264 8.29241 21.9101L8.53137 22H12H15.4686L15.7076 21.9101C16.193 21.7264 16.5327 21.4294 16.7605 21.0034C17.0181 20.5148 17.0107 20.7298 16.992 15.6684C16.977 10.7204 16.9845 10.8845 16.7642 9.94259C16.6485 9.44232 16.5029 9.02021 16.178 8.21899C15.8457 7.39823 15.674 6.91359 15.5433 6.43676C15.435 6.03811 15.2745 5.21734 15.2297 4.83823L15.2073 4.61936L15.4089 4.57246C15.8009 4.48256 16.1482 4.16208 16.2938 3.76342C16.361 3.57582 16.3722 3.4742 16.361 3.22015C16.3348 2.71597 16.0959 2.33294 15.674 2.10626L15.491 2.00855L12.0373 2.00073C9.65896 1.99682 8.55004 2.00855 8.47163 2.03591ZM13.9191 4.71316C13.9303 4.77569 13.9639 5.02192 13.9975 5.26033C14.1506 6.46412 14.4157 7.39041 14.9646 8.64501C15.1065 8.97331 15.3753 9.72763 15.3529 9.74327C15.2782 9.80189 14.8302 10.0677 14.5949 10.1888C13.8333 10.5875 13.1836 10.6774 12.519 10.4741C12.1904 10.3725 12.0336 10.2983 11.6453 10.0598C10.7119 9.48922 10.1742 9.32116 9.27065 9.31725H8.76286L8.92341 8.92641C9.00929 8.71145 9.17357 8.3167 9.28558 8.04702C9.61415 7.26143 9.87551 6.24134 10.0025 5.26033C10.0361 5.02192 10.0697 4.77569 10.0809 4.71316L10.1033 4.60763H12H13.8967L13.9191 4.71316Z"
        fill="#1D1B1C" />
</svg>