<svg width="24" height="24" viewBox="0 0 24 24" fill="none" xmlns="http://www.w3.org/2000/svg">
    <path
        d="M11.571 4.03364C10.6832 4.20466 9.99986 4.60809 9.72566 5.13868C9.64297 5.29654 9.6038 5.33162 9.53416 5.3097C8.87262 5.11675 8.73335 5.09483 8.11969 5.09483C7.69752 5.09044 7.43203 5.10798 7.31452 5.15183C6.73132 5.34916 6.02626 5.96307 5.75642 6.51121L5.59539 6.83132L4.97737 6.84009C4.27666 6.85324 3.94589 6.92779 3.39315 7.20405C2.82301 7.48031 2.30074 8.14684 2.08748 8.86161C1.96126 9.2738 1.97432 10.3262 2.10924 10.9884C2.32685 12.0627 2.67503 12.931 3.20601 13.729C3.7718 14.5797 4.37241 15.1454 5.90004 16.2724C6.69215 16.8512 7.51037 17.5747 7.51037 17.6888C7.51037 17.7063 7.41898 17.8422 7.31017 17.9869C7.00986 18.3728 6.94458 18.5307 6.94458 18.842C6.94458 19.1885 7.09691 19.4823 7.38416 19.6971C7.82373 20.0216 7.51472 19.9997 11.9279 19.9997H15.8884L16.1713 19.8638C16.6631 19.627 16.9112 19.2937 16.9112 18.8596C16.9112 18.557 16.8329 18.3597 16.5804 18.0396L16.3889 17.7896L16.5979 17.5353C16.8851 17.1889 17.1811 16.9389 18.1734 16.2066C19.2484 15.4129 19.5922 15.1235 20.0796 14.6061C20.9022 13.7334 21.455 12.6985 21.764 11.4663C22.2035 9.71669 22.0338 8.55027 21.2156 7.67764C20.9893 7.44084 20.8326 7.31806 20.5932 7.20405C20.0405 6.92779 19.7097 6.85324 19.009 6.84009L18.3823 6.83132L18.2648 6.5726C17.934 5.87976 17.1506 5.24831 16.4412 5.10798C15.945 5.01151 15.2008 5.09044 14.4478 5.3097C14.3695 5.33601 14.339 5.30531 14.2607 5.13868C13.9125 4.41953 12.5372 3.85385 11.571 4.03364ZM12.1237 6.99795C12.2108 7.08565 12.2108 7.14266 12.2108 10.6595C12.2108 14.1763 12.2108 14.2333 12.1237 14.321C12.0062 14.4394 11.8365 14.4306 11.7103 14.2991L11.6015 14.1939V10.6683C11.6015 7.16458 11.6015 7.14266 11.6929 7.02426C11.8017 6.88394 11.9975 6.87078 12.1237 6.99795ZM8.37647 7.68641C8.45481 7.75218 8.48963 7.88373 8.58102 8.48887C8.91615 10.6946 9.36008 12.5889 9.84317 13.8825C9.94763 14.1632 10.0347 14.4306 10.0347 14.4701C10.0347 14.5797 9.83447 14.7595 9.71696 14.7595C9.66038 14.7595 9.57334 14.7157 9.52546 14.6587C9.35572 14.4745 8.93356 13.2072 8.62455 11.975C8.25461 10.4797 7.82809 8.0109 7.90207 7.8048C7.97606 7.61186 8.21544 7.55485 8.37647 7.68641ZM16.0016 7.69518C16.1278 7.80042 16.1278 7.9232 15.9755 8.8923C15.6534 10.9445 15.1877 12.8652 14.6829 14.2114C14.5349 14.6017 14.4174 14.7595 14.2781 14.7595C14.1432 14.7595 13.9517 14.5973 13.9517 14.4833C13.9517 14.4306 14.03 14.1807 14.1258 13.9264C14.6002 12.6766 15.0615 10.7428 15.3836 8.62043C15.4967 7.8925 15.5316 7.75218 15.6099 7.68641C15.7318 7.58994 15.8754 7.58994 16.0016 7.69518ZM4.75976 9.33519C4.79022 9.35712 4.84245 9.48867 4.88162 9.62461C5.48658 11.8391 6.52677 13.8255 7.74975 15.1103C7.96736 15.3384 8.16321 15.562 8.17627 15.6058C8.21544 15.7111 8.09793 15.9303 7.98477 15.9654C7.81503 16.0224 7.69317 15.9435 7.27535 15.5006C6.4963 14.6718 5.89134 13.7597 5.28638 12.5012C4.80328 11.4883 4.24619 9.90525 4.24619 9.53691C4.24619 9.29573 4.55955 9.17295 4.75976 9.33519ZM19.6662 9.37466C19.7706 9.49744 19.7619 9.58514 19.5922 10.164C18.9698 12.3039 17.934 14.2158 16.6849 15.5269C16.2801 15.9567 16.1931 16.0137 16.0147 15.9698C15.9189 15.9435 15.7796 15.7462 15.7796 15.6365C15.7796 15.6102 15.9711 15.3866 16.2062 15.141C16.9112 14.4 17.4378 13.6326 17.9514 12.6108C18.4476 11.6242 18.5912 11.2515 19.1396 9.51937C19.231 9.23872 19.4877 9.16856 19.6662 9.37466Z"
        fill="url(#paint0_linear_297_1189)" />
    <defs>
        <linearGradient id="paint0_linear_297_1189" x1="-1.28125" y1="22.0606" x2="28.3558" y2="17.937"
            gradientUnits="userSpaceOnUse">
            <stop stop-color="#ED1653" />
            <stop offset="1" stop-color="#F15822" />
        </linearGradient>
    </defs>
</svg>