<svg width="24" height="24" viewBox="0 0 24 24" fill="none" xmlns="http://www.w3.org/2000/svg">
    <path
        d="M17.4081 2.03717C15.5786 2.07401 15.2215 2.10347 15.032 2.2066C14.0189 2.76644 14.0189 4.18814 15.032 4.71852C15.2579 4.84374 15.4402 4.85848 16.2273 4.85111L17.153 4.84374L16.0233 5.97816L14.9008 7.11994L14.653 6.93578C14.2885 6.6485 13.2171 6.13285 12.5611 5.92659C11.6792 5.64667 10.8993 5.55828 9.76953 5.60248C7.69954 5.67614 5.97211 6.42014 4.45606 7.88604C2.70677 9.58766 1.80296 12.0701 2.0362 14.5673C2.13825 15.687 2.3642 16.4899 2.84525 17.477C3.98958 19.8121 6.1762 21.4548 8.74182 21.9042C9.73309 22.0736 11.22 22.0147 12.1967 21.7568C14.4343 21.1749 16.3731 19.5838 17.4081 17.477C18.3848 15.4807 18.5379 13.2414 17.8454 11.1051C17.6705 10.5895 17.2623 9.72025 17.0218 9.3814L16.876 9.17515L18.0568 7.9818L19.2303 6.79582V7.71661C19.2303 8.83629 19.3032 9.14568 19.6676 9.4919C20.3163 10.118 21.4096 9.97071 21.8396 9.20461C22 8.91732 22 8.88049 22 5.93396V2.95796L21.8032 2.65594C21.7012 2.48652 21.4752 2.2729 21.3149 2.1845C20.9577 1.97824 20.6953 1.97088 17.4081 2.03717Z"
        fill="url(#paint0_linear_297_1016)" />
    <defs>
        <linearGradient id="paint0_linear_297_1016" x1="-1.28125" y1="24.5758" x2="28.5598" y2="21.2542"
            gradientUnits="userSpaceOnUse">
            <stop stop-color="#ED1653" />
            <stop offset="1" stop-color="#F15822" />
        </linearGradient>
    </defs>
</svg>