<svg width="24" height="24" viewBox="0 0 24 24" fill="none" xmlns="http://www.w3.org/2000/svg">
    <path
        d="M11.2544 5.05507C10.4622 5.17368 9.55165 5.62552 8.87262 6.22986C8.55883 6.51226 8.5331 6.52356 8.02383 6.60828C6.83553 6.8116 5.889 6.56874 4.97333 5.84015C4.50007 5.46173 4.41776 5.42219 3.9908 5.33747C2.95682 5.1285 2 5.98135 2 7.11095C2 7.58538 2.11317 7.97509 2.37552 8.42129C2.55557 8.72063 2.89509 9.12164 3.19345 9.38145C3.30662 9.47746 3.31691 9.53394 3.32205 10.0479C3.33234 10.5732 3.34263 10.6353 3.50724 10.9685C4.18113 12.3297 5.77583 12.629 6.37769 11.5051C6.50115 11.2679 6.52173 11.1775 6.52173 10.7822C6.52173 10.3811 6.50115 10.2795 6.35197 9.95189C6.13592 9.46052 5.64208 8.9522 5.2254 8.77711C4.88588 8.63591 4.28401 8.60202 4.08854 8.71498C3.93421 8.80535 3.73359 8.67545 3.36321 8.24055C2.70475 7.47807 2.68932 6.693 3.32205 6.34282C3.64099 6.16208 3.95993 6.21292 4.32517 6.51226C5.41573 7.38205 6.14621 7.62492 7.55571 7.57973C8.50224 7.55149 8.4508 7.52325 8.4508 8.02592C8.4508 8.37045 8.64113 9.52265 8.79031 10.1044C8.86233 10.3811 9.1144 11.1436 9.35103 11.7988C9.58766 12.4483 9.86545 13.2786 9.96319 13.6344C10.349 15.052 10.5599 16.5431 10.5599 17.8873V18.6724L10.7091 18.8362L10.8583 19H12.0003H13.1423L13.2812 18.8419L13.4252 18.6837L13.4561 17.5598C13.5075 15.5491 13.8162 14.058 14.6495 11.7988C15.2205 10.2512 15.4572 9.27978 15.5343 8.12194L15.5755 7.56279L16.45 7.57973C17.9007 7.61362 18.5797 7.3877 19.6754 6.51226C20.0406 6.21292 20.3596 6.16208 20.6785 6.34282C21.126 6.59133 21.2649 7.07141 21.0386 7.61362C20.8946 7.9525 20.4779 8.47777 20.2052 8.66415C20.0458 8.77146 20.0252 8.77711 19.7165 8.68674C18.6877 8.39869 17.484 9.40969 17.412 10.624C17.3811 11.0984 17.4274 11.3074 17.6074 11.6124C17.8852 12.0699 18.4254 12.2902 18.9809 12.1659C19.6085 12.0247 20.1744 11.5277 20.4573 10.8725C20.5962 10.5449 20.6168 10.4433 20.6168 10.0084C20.6168 9.53394 20.6219 9.52265 20.7711 9.40404C21.0026 9.2346 21.4038 8.78276 21.5787 8.50601C22.2218 7.48372 22.1189 6.29764 21.337 5.67635C21.0026 5.41655 20.7248 5.32053 20.2824 5.32618C19.7783 5.33183 19.5468 5.42219 19.0324 5.8345C18.3379 6.388 17.7823 6.60828 16.9387 6.66476C16.6043 6.68735 16.2957 6.6704 15.9459 6.60828C15.452 6.51791 15.4417 6.51226 15.0302 6.15644C13.9705 5.23581 12.6279 4.8461 11.2544 5.05507Z"
        fill="#1D1B1C" />
</svg>