<svg width="24" height="24" viewBox="0 0 24 24" fill="none" xmlns="http://www.w3.org/2000/svg">
    <path
        d="M13.0232 6.49205C10.8153 7.31051 7.4632 8.55191 5.57641 9.25289C3.26408 10.1066 2.11997 10.5491 2.07581 10.6039C1.97143 10.7214 1.98347 10.8976 2.10391 11.0112L2.20026 11.1091H11.9875C22.8185 11.1091 21.9233 11.1326 21.9795 10.8585C21.9915 10.7841 21.9835 10.4747 21.9594 10.1732C21.8309 8.56758 21.3693 7.47499 20.45 6.58604C19.7073 5.86548 18.8121 5.41905 17.4632 5.09793C17.2344 5.0431 17.0457 5.00002 17.0417 5.00002C17.0377 5.00394 15.2312 5.67359 13.0232 6.49205Z"
        fill="url(#paint0_linear_297_1195)" />
    <path
        d="M2.01204 14.8764L2.02409 18.0993L2.11642 18.2951C2.23284 18.5418 2.44962 18.7611 2.70654 18.8943L2.90727 19H11.9599C20.7876 19 21.0165 19 21.2132 18.9256C21.4741 18.8277 21.7631 18.5575 21.8796 18.3029L21.9759 18.0993L21.988 14.8764L22 11.6573H12H2L2.01204 14.8764ZM16.99 12.7734C17.4797 12.8987 17.821 13.165 18.0217 13.5841C18.2224 13.9992 18.2184 14.4456 18.0136 14.845C17.8892 15.0839 17.568 15.3894 17.3111 15.5186C17.0984 15.6204 17.0422 15.6322 16.6768 15.6322C16.3155 15.6322 16.2513 15.6204 16.0345 15.5186C15.7294 15.3698 15.4564 15.1074 15.3119 14.8098C15.2075 14.6022 15.1955 14.5317 15.1915 14.2028C15.1915 13.8817 15.2075 13.8034 15.2959 13.6154C15.5046 13.1885 15.894 12.8792 16.3557 12.7695C16.6287 12.7029 16.721 12.7069 16.99 12.7734ZM6.53633 13.7368C6.94581 13.9365 7.1666 14.3085 7.13448 14.7471C7.05018 15.8593 5.55279 16.1256 5.05098 15.1152C4.92252 14.8529 4.93055 14.5083 5.07106 14.2302C5.34805 13.6741 5.97431 13.4627 6.53633 13.7368ZM11.9318 15.2758C12.3613 15.4559 12.6503 15.871 12.6503 16.3097C12.6503 16.7208 12.4095 17.1164 12.0321 17.32C11.8475 17.4179 11.7792 17.4336 11.4982 17.4336C11.1289 17.4336 10.9482 17.3592 10.7114 17.1124C10.3139 16.7091 10.2698 16.1334 10.5949 15.6713C10.892 15.2523 11.4661 15.08 11.9318 15.2758Z"
        fill="url(#paint1_linear_297_1195)" />
    <defs>
        <linearGradient id="paint0_linear_297_1195" x1="-1.2731" y1="11.8965" x2="25.3764" y2="2.19566"
            gradientUnits="userSpaceOnUse">
            <stop stop-color="#ED1653" />
            <stop offset="1" stop-color="#F15822" />
        </linearGradient>
        <linearGradient id="paint1_linear_297_1195" x1="-1.28125" y1="19.9456" x2="26.3863" y2="11.5572"
            gradientUnits="userSpaceOnUse">
            <stop stop-color="#ED1653" />
            <stop offset="1" stop-color="#F15822" />
        </linearGradient>
    </defs>
</svg>