<svg width="24" height="24" viewBox="0 0 24 24" fill="none" xmlns="http://www.w3.org/2000/svg">
    <path
        d="M9.38726 3.86C8.02282 4.12053 6.86245 4.71105 5.93533 5.62579C4.93823 6.60421 4.34347 7.71579 4.08691 9.07632C3.9528 9.77684 3.99361 11.1895 4.16854 11.8379C4.72831 13.9511 6.26769 15.6184 8.34352 16.3595C8.57093 16.4347 8.86248 16.5216 9.00242 16.5447L9.24732 16.5853V17.5289V18.4726L8.27355 18.4958C7.33476 18.5132 7.28228 18.5189 7.03155 18.6695C6.30851 19.0863 6.32017 20.1632 7.05487 20.58C7.27645 20.7016 7.37558 20.7132 8.26189 20.7305L9.23566 20.7537L9.25898 21.4832C9.28231 22.2763 9.33478 22.4384 9.638 22.7221C9.84791 22.9189 10.0637 23 10.3902 23C10.7342 23 10.9908 22.89 11.2124 22.6353C11.4631 22.3516 11.5214 22.1084 11.5214 21.3616V20.7421H12.3669C12.8275 20.7421 13.3407 20.7132 13.5039 20.6784C14.5185 20.4642 14.6876 19.1095 13.7663 18.6116C13.6264 18.5363 13.3698 18.5132 12.5593 18.4958L11.5214 18.4726V17.5637V16.6489L12.0578 16.5216C14.087 16.0237 15.7663 14.5821 16.536 12.6716C16.8976 11.7742 16.9675 11.3805 16.9675 10.2342C16.9675 9.29053 16.95 9.14 16.8101 8.61316C16.5185 7.53053 15.8888 6.4479 15.1016 5.66632C14.3086 4.87895 13.2124 4.25369 12.1337 3.97579C11.4164 3.79053 10.0637 3.73263 9.38726 3.86Z"
        fill="#1D1B1C" />
    <path
        d="M16.3265 1.02922C14.8629 1.05816 14.5772 1.08132 14.4256 1.16237C13.6151 1.60237 13.6151 2.71974 14.4256 3.13659C14.6064 3.23501 14.7521 3.24658 15.3819 3.2408L16.1224 3.23501L15.2186 4.12659L14.3206 5.02395L14.1224 4.87922C13.8308 4.65343 12.9737 4.24816 12.4489 4.08606C11.7433 3.86606 11.1194 3.79658 10.2156 3.83132C8.55963 3.88922 7.17769 4.47395 5.96485 5.62606C4.56541 6.96343 3.84237 8.91448 4.02896 10.8771C4.1106 11.7571 4.29136 12.3882 4.6762 13.164C5.59166 14.9992 7.34096 16.2903 9.39346 16.6434C10.1865 16.7766 11.376 16.7303 12.1573 16.5276C13.9474 16.0703 15.4985 14.8197 16.3265 13.164C17.1078 11.595 17.2303 9.83501 16.6763 8.15606C16.5364 7.7508 16.2099 7.06764 16.0174 6.80132L15.9008 6.63922L16.8454 5.70132L17.7842 4.76922V5.4929C17.7842 6.3729 17.8425 6.61606 18.1341 6.88816C18.653 7.38027 19.5277 7.26448 19.8717 6.66237C20 6.43658 20 6.40764 20 4.09185V1.7529L19.8426 1.51553C19.7609 1.38237 19.5802 1.21448 19.4519 1.14501C19.1662 0.9829 18.9563 0.977111 16.3265 1.02922Z"
        fill="#1D1B1C" />
</svg>