<svg width="24" height="24" viewBox="0 0 24 24" fill="none" xmlns="http://www.w3.org/2000/svg">
    <path
        d="M10.8116 2.07105C9.33765 2.34232 8.08419 2.95719 7.08269 3.90963C6.00559 4.92838 5.36312 6.08578 5.08597 7.50238C4.9411 8.23179 4.98519 9.70265 5.17415 10.3778C5.77884 12.5781 7.44172 14.3142 9.68409 15.0858C9.92974 15.1641 10.2447 15.2545 10.3958 15.2787L10.6604 15.3208V16.3034V17.286L9.6085 17.3101C8.5944 17.3282 8.53771 17.3342 8.26686 17.491C7.48581 17.925 7.49841 19.0462 8.29205 19.4802C8.53141 19.6068 8.63849 19.6189 9.5959 19.637L10.6478 19.6611L10.673 20.4206C10.6982 21.2465 10.7549 21.4153 11.0824 21.7107C11.3092 21.9156 11.5422 22 11.895 22C12.2666 22 12.5437 21.8855 12.7831 21.6202C13.0539 21.3249 13.1169 21.0717 13.1169 20.294V19.649H14.0303C14.5279 19.649 15.0822 19.6189 15.2585 19.5827C16.3545 19.3597 16.5372 17.9491 15.542 17.4307C15.3908 17.3523 15.1136 17.3282 14.2381 17.3101L13.1169 17.286V16.3396V15.3872L13.6964 15.2545C15.8884 14.7361 17.7024 13.2351 18.5339 11.2458C18.9244 10.3115 19 9.90157 19 8.70801C19 7.72542 18.9811 7.56869 18.8299 7.02013C18.515 5.89288 17.8347 4.76562 16.9844 3.95183C16.1278 3.132 14.9436 2.48096 13.7783 2.19161C13.0036 1.99871 11.5422 1.93843 10.8116 2.07105Z"
        fill="#1D1B1C" />
</svg>