<svg width="24" height="24" viewBox="0 0 24 24" fill="none" xmlns="http://www.w3.org/2000/svg">
    <path
        d="M10.761 2.07199C10.6135 2.15403 9.9731 2.76738 9.36636 3.40417C5.94503 7.00223 3.7414 10.4245 3.15573 13.042C2.62483 15.4446 3.47174 18.023 5.38465 19.8044C6.61497 20.953 8.22451 21.707 9.9436 21.9414C10.5293 22.0195 11.6669 22.0195 12.2526 21.9414C15.0924 21.5546 17.511 19.8005 18.6022 17.3315L18.7413 17.019L18.2272 16.9721C17.216 16.8822 16.5334 16.515 16.0278 15.7923C15.9225 15.6399 15.8256 15.5149 15.8172 15.5149C15.8087 15.5149 15.657 15.7766 15.4801 16.0931C15.3031 16.4134 15.0714 16.7729 14.9703 16.894C14.5573 17.3706 13.8916 17.7105 13.1795 17.7925C12.7034 17.8472 12.2147 17.7652 11.7301 17.5464C11.195 17.3081 10.9506 17.0737 10.2807 16.1439L9.69079 15.3313L9.25681 15.3078C8.47732 15.2649 7.97171 15.0578 7.42817 14.5578C6.89306 14.0655 6.6529 13.5303 6.6529 12.8388C6.6529 12.4013 6.73716 12.0653 6.92677 11.7293C7.30177 11.0691 7.91272 10.612 8.6585 10.4362C8.94501 10.3659 9.12619 10.3581 10.209 10.3581C11.5236 10.3581 11.7301 10.3815 12.1894 10.569L12.4253 10.6667L12.8087 9.95959C13.3017 9.04543 13.466 8.81102 13.82 8.51021C14.4773 7.93983 15.3705 7.72887 16.2385 7.93593C16.4197 7.9789 16.584 8.01406 16.6009 8.01406C16.7146 8.01406 15.2399 6.09197 14.2203 4.91606C13.2259 3.76749 11.6543 2.15794 11.4352 2.06027C11.2456 1.97432 10.9169 1.98213 10.761 2.07199Z"
        fill="#1D1B1C" />
    <path
        d="M15.1015 9.62358C14.8908 9.7525 14.8866 9.75641 13.8543 11.659C13.2855 12.7099 12.8052 13.5693 12.7883 13.5693C12.7715 13.5654 12.5481 13.2802 12.2953 12.9325C11.7518 12.1786 11.735 12.1629 11.5201 12.0731C11.3684 12.0067 11.2251 11.9988 10.2013 11.9988C9.14368 11.9988 9.03834 12.0067 8.89087 12.0731C8.27149 12.3661 8.22093 13.163 8.79396 13.542L8.97935 13.6592L9.78834 13.6709L10.6015 13.6826L11.4274 14.8273C12.2237 15.9329 12.2616 15.9798 12.4765 16.0774C12.8473 16.2493 13.2602 16.1985 13.5425 15.9446C13.6226 15.8704 14.0313 15.1555 14.6591 13.9913C15.2026 12.9833 15.6619 12.1551 15.6745 12.1551C15.6872 12.1551 16.1212 12.8036 16.6352 13.5967C17.2714 14.5812 17.6169 15.0773 17.7181 15.1555C17.9666 15.3469 18.1141 15.3664 19.2939 15.3508C20.461 15.3391 20.4905 15.3352 20.7433 15.1008C20.9371 14.9211 20.9961 14.7765 21.0003 14.4991C21.0003 14.1671 20.8571 13.9248 20.5663 13.7686C20.3725 13.6631 20.3515 13.6592 19.5888 13.6475L18.8093 13.6318L17.5495 11.6824C16.1085 9.45169 16.1717 9.52592 15.6324 9.50638C15.329 9.49076 15.2995 9.49857 15.1015 9.62358Z"
        fill="#1D1B1C" />
</svg>